<?xml version="1.0" encoding="UTF-8"?>
<svg version="1.1" xmlns="http://www.w3.org/2000/svg" width="2000" height="386">
<path d="M0 0 C4.13580871 1.36709307 6.83642197 4.42012283 9.81321657 7.48097771 C10.93109578 8.58225374 10.93109578 8.58225374 12.07155842 9.70577776 C14.56509411 12.17207585 17.02901928 14.66597582 19.49401796 17.16077203 C21.27513355 18.93432212 23.05796312 20.70615235 24.84237611 22.47638482 C29.18190331 26.79086016 33.50238591 31.1236346 37.81431293 35.4656728 C42.83697916 40.52207283 47.8796576 45.55831546 52.92295332 50.59412502 C61.92108029 59.58049647 70.89902212 68.58677294 79.86657655 77.60364312 C88.5669932 86.35190099 97.28405974 95.08313473 106.0189203 103.79700249 C115.53200618 113.28726613 125.03552021 122.78692855 134.5227589 132.30303729 C135.5345462 133.31787624 136.54633898 134.33270973 137.5581373 135.3475377 C138.05594064 135.84685667 138.55374399 136.34617564 139.06663228 136.86062549 C142.57416585 140.37764177 146.08825101 143.88802914 149.6047796 147.3960492 C154.33806776 152.11845101 159.05485014 156.85676351 163.76102769 161.6062066 C165.4921075 163.348429 167.22832479 165.08556374 168.96996057 166.81723374 C171.3436512 169.17903963 173.69812959 171.55846566 176.04856813 173.94338006 C176.74445997 174.62725181 177.44035181 175.31112356 178.15733129 176.0157187 C181.05239196 178.98865065 182.82274072 181.24086808 184.35756719 185.13869923 C183.79182997 190.50147289 180.73655841 192.99520692 176.9864496 196.65662163 C175.79363372 197.89456392 174.6010924 199.13277082 173.40883482 200.37125081 C172.12213899 201.66848078 170.83284987 202.96314221 169.54136598 204.2556054 C168.46681212 205.33673264 168.46681212 205.33673264 167.3705501 206.43970084 C164.99022669 208.83328702 162.60641876 211.22337028 160.22253358 213.61340874 C158.50694475 215.33690765 156.79153604 217.06058586 155.07629335 218.78442925 C149.94927502 223.93528598 144.81797613 229.08186326 139.68550131 234.22728136 C138.23511411 235.68138804 136.78485363 237.13562098 135.33463728 238.58989805 C126.31604772 247.63370254 117.29586906 256.67591882 108.27090299 265.71336049 C106.18721466 267.79997807 104.1035426 269.8866119 102.01989686 271.97327203 C101.50207165 272.49184329 100.98424644 273.01041455 100.45072956 273.54470009 C92.0437017 281.9644094 83.64702193 290.39436183 75.25447141 298.82849931 C66.62799396 307.49737102 57.99214109 316.15681339 49.34705538 324.80712867 C44.4970773 329.66052076 39.65135309 334.51800171 34.81615961 339.38612717 C30.27451712 343.95865424 25.72031057 348.51840795 21.15729463 353.06960839 C19.48319513 354.74348632 17.81338678 356.42166839 16.14817178 358.10438508 C13.87831458 360.39679945 11.59365766 362.67335586 9.30454957 364.94652337 C8.64588551 365.61906952 7.98722144 366.29161567 7.30859786 366.98454201 C4.56165343 369.68443618 2.53749129 371.4475697 -1.09593165 372.82600278 C-8.00661453 372.42480596 -12.82983345 366.12300138 -17.44795287 361.46945733 C-18.17516262 360.74466199 -18.90237237 360.01986666 -19.65161878 359.27310783 C-22.08148084 356.84887113 -24.50414267 354.41756647 -26.92688048 351.98621148 C-28.66954115 350.24462394 -30.41263474 348.5034695 -32.15612853 346.762716 C-36.39463478 342.52855202 -40.62847996 338.28977857 -44.86017904 334.04881518 C-49.78741125 329.11118481 -54.71988068 324.17880007 -59.65255722 319.24660958 C-68.45042776 310.44923922 -77.24346369 301.64705246 -86.03381407 292.84216851 C-94.56729231 284.29458869 -103.10427908 275.75053341 -111.6451422 267.21033257 C-112.17169867 266.68381606 -112.69825514 266.15729954 -113.24076787 265.61482798 C-113.76640829 265.08922791 -114.29204871 264.56362785 -114.83361763 264.02210051 C-124.55607258 254.3003348 -134.27523749 244.57528586 -143.9928675 234.84869742 C-147.43166872 231.40687694 -150.87144863 227.9660364 -154.31153357 224.52549905 C-158.93589313 219.90038744 -163.55745648 215.27249437 -168.17714751 210.64271897 C-169.87711002 208.93982571 -171.57792965 207.23778762 -173.27964652 205.5366475 C-175.59344087 203.22334079 -177.90415612 200.90700302 -180.21406615 198.58981866 C-181.23660458 197.56960313 -181.23660458 197.56960313 -182.27980036 196.52877718 C-183.20207816 195.6016627 -183.20207816 195.6016627 -184.14298785 194.65581864 C-184.67703968 194.12106238 -185.21109151 193.58630613 -185.76132673 193.03534514 C-187.73776865 190.85924275 -188.04201786 189.47452772 -188.50452483 186.51607198 C-187.8009566 180.98546487 -185.04181127 178.70673244 -181.15795958 174.90541619 C-180.42039758 174.15622869 -179.68283557 173.40704118 -178.92292321 172.63515103 C-176.4428887 170.12481272 -173.93851852 167.64027414 -171.43347228 165.15491265 C-169.65192044 163.36224065 -167.87185495 161.56809048 -166.09317076 159.77257317 C-161.75664737 155.40357721 -157.4039079 151.05134043 -153.0427174 146.70698328 C-149.49842614 143.17576632 -145.96083912 139.63796263 -142.42793334 136.09535569 C-141.92512737 135.59118837 -141.42232141 135.08702106 -140.9042789 134.56757594 C-139.88285837 133.54334503 -138.86145026 132.51910173 -137.84005445 131.49484616 C-128.26069419 121.89035063 -118.65960099 112.30781719 -109.05120414 102.73238253 C-100.80806417 94.51642661 -92.58494713 86.28085942 -84.37585509 78.03088921 C-74.84279418 68.45036438 -65.29674703 58.88307963 -55.7302562 49.33592713 C-54.71004837 48.31769749 -53.68986075 47.2994476 -52.66969359 46.28117722 C-51.91678003 45.52967249 -51.91678003 45.52967249 -51.1486561 44.76298584 C-47.61319737 41.23228124 -44.08729534 37.69220328 -40.56504881 34.14832276 C-35.82316355 29.37779648 -31.06067612 24.62883192 -26.28347456 19.89363068 C-24.53184132 18.15098955 -22.78701459 16.40147641 -21.04951918 14.64473885 C-18.67934629 12.25051969 -16.28597855 9.88221872 -13.88501036 7.51894158 C-13.2001605 6.81556383 -12.51531065 6.11218608 -11.80970776 5.38749385 C-8.1504555 1.84223121 -5.27952408 -0.52196571 0 0 Z M-10.18357909 71.05129021 C-10.66718683 71.52412688 -11.15079457 71.99696355 -11.64905709 72.48412859 C-13.26418145 74.07066017 -14.85706107 75.6777865 -16.45080626 77.28577203 C-17.60478542 78.4283457 -18.76002006 79.56965256 -19.91641295 80.70978326 C-23.05214388 83.80960145 -26.16843973 86.92829264 -29.28054941 90.05180448 C-31.87948859 92.65691952 -34.48754539 95.25280834 -37.09560746 97.84878504 C-43.24710672 103.97218159 -49.38284268 110.11106309 -55.50891173 116.25989312 C-61.8317715 122.60572477 -68.17978055 128.92556085 -74.54086643 135.23305488 C-80.00004198 140.64795015 -85.44360263 146.07819434 -90.87480515 151.52114642 C-94.11943142 154.77252154 -97.36961242 158.01779921 -100.63474905 161.24858826 C-103.70374303 164.28670017 -106.75277346 167.34351928 -109.78744948 170.41589898 C-110.90483678 171.5406738 -112.02910355 172.65866167 -113.16058218 173.76926011 C-114.70374462 175.28609892 -116.22020287 176.82545236 -117.73240721 178.37306756 C-118.58833433 179.22941324 -119.44426144 180.08575892 -120.32612574 180.96805447 C-122.31721492 183.62247944 -122.31721492 183.62247944 -122.0594002 187.16178769 C-120.86077046 191.16715432 -119.50398167 192.91580843 -116.56109679 195.85751885 C-116.09416167 196.33240278 -115.62722655 196.80728671 -115.14614189 197.29656106 C-113.58559656 198.87627985 -112.00461638 200.43374505 -110.42273009 201.99207085 C-109.29644288 203.12321641 -108.17144919 204.25565118 -107.04765379 205.38927239 C-103.99714882 208.45856658 -100.92817184 211.50874742 -97.85496867 214.55529326 C-94.64062441 217.74698541 -91.4417416 220.95410798 -88.24066222 224.15909356 C-82.8639636 229.53755715 -77.47543732 234.90394072 -72.07946837 240.26306695 C-65.84047933 246.45970047 -59.61935551 252.67382986 -53.40775239 258.89790684 C-47.43120435 264.88584173 -41.44338349 270.8623737 -35.44992888 276.83338326 C-32.89948872 279.37453302 -30.35285855 281.91941319 -27.80916655 284.46731728 C-24.8142575 287.46599208 -21.80955021 290.45449235 -18.79696143 293.43540162 C-17.69260524 294.53126942 -16.59162588 295.63055221 -15.4942919 296.73345155 C-13.99655122 298.23763379 -12.48707568 299.72895614 -10.97393858 301.21762627 C-10.13179682 302.0556623 -9.28965506 302.89369832 -8.42199385 303.75712937 C-5.73497294 305.87633023 -4.43942962 306.69326782 -1.0135504 306.65662163 C3.21875901 304.33921155 6.51274787 301.37984416 9.9085077 297.98180169 C10.5939923 297.29993872 10.5939923 297.29993872 11.29332507 296.60430074 C12.80876197 295.09445656 14.31700233 293.57763119 15.82531679 292.06067437 C16.91611742 290.97094769 18.00735111 289.88165435 19.09898317 288.79276055 C22.05160429 285.84497145 24.99796243 282.89099543 27.94307935 279.93571132 C31.02847956 276.84150768 34.11917077 273.75259727 37.20916688 270.66298455 C42.39404146 265.47717463 47.57503493 260.28751295 52.75353944 255.09534234 C58.74192638 249.09121057 64.73554346 243.09234101 70.73217404 237.0964433 C77.11857903 230.71071341 83.50117181 224.32118367 89.88264501 217.93052572 C91.72178201 216.08925686 93.56162925 214.24870024 95.40163362 212.40829819 C98.28993236 209.51899581 101.17567023 206.62715954 104.05943429 203.73333138 C105.118795 202.67104752 106.17900504 201.60960989 107.24011743 200.54907578 C108.68650167 199.10318161 110.12950598 197.65390871 111.57232606 196.20445794 C112.38124174 195.39386642 113.19015741 194.58327491 114.02358568 193.74812001 C116.13250408 191.61620525 116.13250408 191.61620525 117.9864496 188.65662163 C117.81488107 183.46596801 116.10133218 181.14338887 112.50276124 177.53128594 C112.03244814 177.05246732 111.56213504 176.5736487 111.07757002 176.08032042 C109.50330236 174.48382127 107.91181413 172.9057205 106.31970155 171.32703179 C105.18541333 170.18432885 104.05218413 169.04057386 102.91993654 167.89584893 C99.84466483 164.79351983 96.75371013 161.70727741 93.65887034 158.62448329 C91.07687143 156.04961351 88.50272219 153.46696882 85.92856032 150.88426787 C79.85694687 144.79270054 73.77266773 138.71399546 67.68005311 132.64343804 C61.39279887 126.3785594 55.125802 120.09393735 48.86865968 113.79899532 C43.49606338 108.3951852 38.11191102 103.00309042 32.71813303 97.62042242 C29.49656365 94.40534592 26.27940743 91.18615305 23.07299173 87.95595711 C20.05844541 84.92019566 17.02970816 81.89935211 13.98936975 78.88942879 C12.87560145 77.78200008 11.76692593 76.66942241 10.66377199 75.55141991 C9.15764993 74.02667727 7.63426859 72.52158745 6.10505617 71.02005547 C5.25646185 70.1724245 4.40786754 69.32479352 3.53355825 68.45147675 C1.08229006 66.4574758 1.08229006 66.4574758 -2.01033652 66.10924023 C-5.92767424 66.82323461 -7.36880282 68.25244658 -10.18357909 71.05129021 Z " fill="#915DFF" transform="translate(208.01355040073395,4.343378365039825)"/>
<path d="M0 0 C67.32 0 134.64 0 204 0 C203 10 203 10 202 13 C190.30718332 12.41775941 178.709548 11.43546157 167.07421875 10.15234375 C165.42662532 9.97398992 163.7789853 9.79606606 162.13130188 9.61854553 C157.85338683 9.15678653 153.57597684 8.69052438 149.29870605 8.22283936 C142.41004257 7.47008114 135.52077638 6.72291205 128.63120461 5.97851753 C126.23793709 5.71904156 123.84499514 5.45670822 121.45207214 5.19407654 C119.99108942 5.03545414 118.53009653 4.87692542 117.0690918 4.71850586 C115.79688278 4.57940292 114.52467377 4.44029999 113.21391296 4.29698181 C109.87409565 3.93865796 109.87409565 3.93865796 106 4 C106.58007812 4.35191406 107.16015625 4.70382813 107.7578125 5.06640625 C116.98694486 10.89933974 120.39183161 15.17549483 124 26 C148.75 26 173.5 26 199 26 C198.67 30.29 198.34 34.58 198 39 C158.49439858 35.19646718 158.49439858 35.19646718 140.625 33.3125 C139.47547852 33.19350342 138.32595703 33.07450684 137.14160156 32.9519043 C136.09713867 32.84015869 135.05267578 32.72841309 133.9765625 32.61328125 C133.08018066 32.51829346 132.18379883 32.42330566 131.26025391 32.32543945 C129 32 129 32 126 31 C126 37.6 126 44.2 126 51 C148.77 51 171.54 51 195 51 C194 62 194 62 193 64 C180.61202084 63.38819158 168.3156732 62.17789603 155.98706055 60.84326172 C152.78024655 60.49651247 149.57280299 60.1560971 146.36523438 59.81640625 C144.31246051 59.59672289 142.25972465 59.37668402 140.20703125 59.15625 C139.25496292 59.05517944 138.30289459 58.95410889 137.32197571 58.84997559 C135.98854378 58.70477478 135.98854378 58.70477478 134.62817383 58.55664062 C133.85258621 58.47305298 133.0769986 58.38946533 132.27790833 58.30334473 C129.82437884 57.97661286 127.42158403 57.50957844 125 57 C124.8453125 58.918125 124.8453125 58.918125 124.6875 60.875 C124 66 124 66 121 76 C144.1 76.33 167.2 76.66 191 77 C190.34 81.29 189.68 85.58 189 90 C180.18533975 89.1082161 171.37098626 88.21354027 162.5571394 87.31375217 C158.46462562 86.89607283 154.37199043 86.47966846 150.27905273 86.06616211 C146.33006213 85.66715149 142.38142363 85.26481241 138.43300819 84.86015129 C136.92563276 84.70625857 135.41813379 84.55357095 133.91051292 84.40210152 C131.80092466 84.18994614 129.691814 83.97353237 127.58276367 83.75610352 C126.38141281 83.63396988 125.18006195 83.51183624 123.94230652 83.38600159 C121 83 121 83 118 82 C117.7421875 82.87140625 117.484375 83.7428125 117.21875 84.640625 C115.98416144 88.04365758 114.47287308 90.72381333 112.5 93.75 C111.8915625 94.69359375 111.283125 95.6371875 110.65625 96.609375 C109 99 109 99 107 101 C146.105 101.495 146.105 101.495 186 102 C185 113 185 113 184 115 C174.29519997 114.44028501 164.66133224 113.5940974 155.00411797 112.47563744 C151.27180232 112.04664703 147.53707263 111.63945594 143.80273438 111.22851562 C139.09411183 110.70950973 134.3865273 110.18388477 129.68139648 109.6340332 C125.83414633 109.18501944 121.98498405 108.75845851 118.13356209 108.34682655 C116.67785116 108.18712099 115.22300968 108.01926021 113.76922417 107.84288597 C111.7437044 107.59820923 109.71448809 107.3847485 107.68530273 107.17260742 C106.53585678 107.04238693 105.38641083 106.91216644 104.20213318 106.77799988 C100.1631654 107.05801676 98.20432353 108.61994313 95 111 C94.34 111 93.68 111 93 111 C93.28875 111.97582031 93.5775 112.95164062 93.875 113.95703125 C94.25021019 115.24212615 94.62519862 116.52728581 95 117.8125 C95.37125 119.07707031 95.7425 120.34164062 96.125 121.64453125 C97 125 97 125 97 128 C125.05 128 153.1 128 182 128 C181.34 131.96 180.68 135.92 180 140 C171.18886368 140.18086961 162.63306098 139.47772529 153.8828125 138.50390625 C152.45324475 138.3489118 151.02362739 138.19437428 149.59396362 138.04026794 C146.6201799 137.71850926 143.64685053 137.39292661 140.67382812 137.06420898 C136.8716738 136.64389498 133.06878131 136.23078132 129.26556587 135.82019138 C126.32279381 135.50213459 123.38029797 135.18158413 120.43789291 134.86015129 C119.03536961 134.70699226 117.63279496 134.55430271 116.23016739 134.40210152 C114.27314373 134.18910458 112.31649452 133.97267566 110.35986328 133.75610352 C108.69420822 133.57290306 108.69420822 133.57290306 106.99490356 133.38600159 C104.29360118 133.03784112 101.66154241 132.57312305 99 132 C99.27263672 132.79434448 99.27263672 132.79434448 99.55078125 133.60473633 C100.37190719 136.00574015 101.18602171 138.4090641 102 140.8125 C102.28617188 141.64587891 102.57234375 142.47925781 102.8671875 143.33789062 C103.13789062 144.14033203 103.40859375 144.94277344 103.6875 145.76953125 C104.06455078 146.87711792 104.06455078 146.87711792 104.44921875 148.00708008 C105 150 105 150 105 153 C128.76 153 152.52 153 177 153 C176 164 176 164 175 166 C162.21386563 165.41534141 149.52512617 164.22073729 136.80175781 162.84326172 C133.58195516 162.49534883 130.36136631 162.15550847 127.140625 161.81640625 C125.08588702 161.596826 123.03119755 161.37679129 120.9765625 161.15625 C120.01730865 161.05517944 119.05805481 160.95410889 118.06973267 160.84997559 C117.18385468 160.75317505 116.29797668 160.65637451 115.38525391 160.55664062 C114.60824127 160.47305298 113.83122864 160.38946533 113.03067017 160.30334473 C111 160 111 160 108 159 C108.66 161.64 109.32 164.28 110 167 C91.19 167 72.38 167 53 167 C49.04 151.16 45.08 135.32 41 119 C37.7 118.67 34.4 118.34 31 118 C30.86859619 119.28640381 30.73719238 120.57280762 30.60180664 121.89819336 C30.0506559 126.84743886 29.24638421 131.72800403 28.37109375 136.62890625 C28.23449341 137.40617065 28.09789307 138.18343506 27.95715332 138.98425293 C27.45368736 141.84421344 26.94531839 144.7033091 26.4375 147.5625 C25.303125 153.976875 24.16875 160.39125 23 167 C5.84 167 -11.32 167 -29 167 C-25.26867814 144.25055671 -21.36960502 121.53388679 -17.3828125 98.828125 C-17.15692318 97.54155754 -16.93103386 96.25499008 -16.69829941 94.92943573 C-14.84325116 84.36914454 -12.98371737 73.80964696 -11.125 63.25 C-7.45375 42.3775 -3.7825 21.505 0 0 Z M44 44 C40.58641017 59.86938249 40.58641017 59.86938249 39 76 C52.47460704 76.97028815 52.47460704 76.97028815 65 73 C68.36336322 69.63663678 68.96130188 65.64963658 69.75 61.125 C69.88792969 60.43019531 70.02585937 59.73539063 70.16796875 59.01953125 C70.94389486 54.77193572 71.46104788 51.10770018 70 47 C65.02158204 43.15743468 59.61554044 43.64585872 53.625 43.8125 C52.69816406 43.82603516 51.77132813 43.83957031 50.81640625 43.85351562 C48.54366002 43.88866119 46.27214153 43.93785868 44 44 Z " fill="#915DFF" transform="translate(1581,112)"/>
<path d="M0 0 C67.32 0 134.64 0 204 0 C203 9 203 9 202 13 C190.30718332 12.41775941 178.709548 11.43546157 167.07421875 10.15234375 C165.42662532 9.97398992 163.7789853 9.79606606 162.13130188 9.61854553 C157.85338683 9.15678653 153.57597684 8.69052438 149.29870605 8.22283936 C142.41004257 7.47008114 135.52077638 6.72291205 128.63120461 5.97851753 C126.23793709 5.71904156 123.84499514 5.45670822 121.45207214 5.19407654 C119.99108942 5.03545414 118.53009653 4.87692542 117.0690918 4.71850586 C115.79688278 4.57940292 114.52467377 4.44029999 113.21391296 4.29698181 C109.87409565 3.93865796 109.87409565 3.93865796 106 4 C106.58007812 4.35191406 107.16015625 4.70382813 107.7578125 5.06640625 C116.98694486 10.89933974 120.39183161 15.17549483 124 26 C148.75 26 173.5 26 199 26 C198.67 30.29 198.34 34.58 198 39 C196.92032959 38.89453857 195.84065918 38.78907715 194.72827148 38.68041992 C171.8198695 36.44298664 148.91084231 34.2123125 126 32 C126 38.27 126 44.54 126 51 C148.77 51 171.54 51 195 51 C194 62 194 62 193 64 C180.61202084 63.38819158 168.3156732 62.17789603 155.98706055 60.84326172 C152.78024655 60.49651247 149.57280299 60.1560971 146.36523438 59.81640625 C144.31246051 59.59672289 142.25972465 59.37668402 140.20703125 59.15625 C139.25496292 59.05517944 138.30289459 58.95410889 137.32197571 58.84997559 C135.98854378 58.70477478 135.98854378 58.70477478 134.62817383 58.55664062 C133.85258621 58.47305298 133.0769986 58.38946533 132.27790833 58.30334473 C129.82437884 57.97661286 127.42158403 57.50957844 125 57 C124.87882812 57.86882812 124.75765625 58.73765625 124.6328125 59.6328125 C124.38144531 61.36144531 124.38144531 61.36144531 124.125 63.125 C123.88136719 64.83042969 123.88136719 64.83042969 123.6328125 66.5703125 C123 70 123 70 121 76 C144.1 76.33 167.2 76.66 191 77 C190.34 81.29 189.68 85.58 189 90 C180.18533975 89.1082161 171.37098626 88.21354027 162.5571394 87.31375217 C158.46462562 86.89607283 154.37199043 86.47966846 150.27905273 86.06616211 C146.33006213 85.66715149 142.38142363 85.26481241 138.43300819 84.86015129 C136.92563276 84.70625857 135.41813379 84.55357095 133.91051292 84.40210152 C131.80092466 84.18994614 129.691814 83.97353237 127.58276367 83.75610352 C126.38141281 83.63396988 125.18006195 83.51183624 123.94230652 83.38600159 C121 83 121 83 118 82 C117.75378906 82.85980469 117.50757813 83.71960938 117.25390625 84.60546875 C115.8980524 88.275989 114.14818116 91.09076322 111.9375 94.3125 C111.22464844 95.36050781 110.51179688 96.40851563 109.77734375 97.48828125 C108 100 108 100 107 101 C146.105 101.495 146.105 101.495 186 102 C185 112 185 112 184 115 C174.40302 114.43607507 164.86951013 113.63494331 155.31337929 112.56733322 C153.17334439 112.32869634 151.03283052 112.09485133 148.89213562 111.86221313 C142.81934978 111.20168112 136.74729007 110.53472351 130.67602539 109.86035156 C126.93113706 109.44471643 123.18555254 109.03593691 119.43944359 108.63145828 C118.02179351 108.47699634 116.60442791 108.31989912 115.18737221 108.16007614 C113.21718248 107.93800792 111.24593566 107.72537938 109.2746582 107.51318359 C108.15630081 107.38962494 107.03794342 107.26606628 105.88569641 107.13876343 C100.99733157 106.90369842 98.81035432 108.07872835 95 111 C94.34 111 93.68 111 93 111 C93.28875 111.97582031 93.5775 112.95164062 93.875 113.95703125 C94.25021019 115.24212615 94.62519862 116.52728581 95 117.8125 C95.37125 119.07707031 95.7425 120.34164062 96.125 121.64453125 C97 125 97 125 97 128 C125.05 128 153.1 128 182 128 C181.34 131.96 180.68 135.92 180 140 C171.18886368 140.18086961 162.63306098 139.47772529 153.8828125 138.50390625 C152.45324475 138.3489118 151.02362739 138.19437428 149.59396362 138.04026794 C146.6201799 137.71850926 143.64685053 137.39292661 140.67382812 137.06420898 C136.8716738 136.64389498 133.06878131 136.23078132 129.26556587 135.82019138 C126.32279381 135.50213459 123.38029797 135.18158413 120.43789291 134.86015129 C119.03536961 134.70699226 117.63279496 134.55430271 116.23016739 134.40210152 C114.27314373 134.18910458 112.31649452 133.97267566 110.35986328 133.75610352 C108.69420822 133.57290306 108.69420822 133.57290306 106.99490356 133.38600159 C104.29360118 133.03784112 101.66154241 132.57312305 99 132 C99.27263672 132.79434448 99.27263672 132.79434448 99.55078125 133.60473633 C100.37190719 136.00574015 101.18602171 138.4090641 102 140.8125 C102.28617188 141.64587891 102.57234375 142.47925781 102.8671875 143.33789062 C103.13789062 144.14033203 103.40859375 144.94277344 103.6875 145.76953125 C104.06455078 146.87711792 104.06455078 146.87711792 104.44921875 148.00708008 C105 150 105 150 105 153 C128.76 153 152.52 153 177 153 C176 164 176 164 175 166 C161.14303285 165.37701572 147.40855644 163.95970801 133.625 162.4375 C130.41773998 162.08619427 127.21035639 161.73608923 124.0027771 161.38771057 C122.02488756 161.17260464 120.04719564 160.95567172 118.06973267 160.73667908 C117.18385468 160.63980301 116.29797668 160.54292694 115.38525391 160.44311523 C114.60824127 160.35730698 113.83122864 160.27149872 113.03067017 160.18309021 C110.84183791 159.9551009 110.84183791 159.9551009 108 160 C108.99 163.465 108.99 163.465 110 167 C91.19 167 72.38 167 53 167 C51.02 159.28625 49.04 151.5725 47 143.625 C46.37351562 141.18947754 45.74703125 138.75395508 45.1015625 136.24462891 C44.60918483 134.3219888 44.11698502 132.39930312 43.625 130.4765625 C43.36589844 129.47197998 43.10679687 128.46739746 42.83984375 127.43237305 C42.59621094 126.47838623 42.35257813 125.52439941 42.1015625 124.54150391 C41.78179443 123.29574081 41.78179443 123.29574081 41.45556641 122.02481079 C41 120 41 120 41 118 C37.7 118 34.4 118 31 118 C30.84144531 119.19109375 30.68289063 120.3821875 30.51953125 121.609375 C28.44350846 136.82389564 25.75348031 151.8930675 23 167 C5.84 167 -11.32 167 -29 167 C-25.26867814 144.25055671 -21.36960502 121.53388679 -17.3828125 98.828125 C-17.15692318 97.54155754 -16.93103386 96.25499008 -16.69829941 94.92943573 C-14.84325116 84.36914454 -12.98371737 73.80964696 -11.125 63.25 C-7.45375 42.3775 -3.7825 21.505 0 0 Z M44 44 C40.74451653 59.9530305 40.74451653 59.9530305 38 76 C51.87304453 76.73355733 51.87304453 76.73355733 65 73 C68.3599225 69.63194209 68.96103158 65.65118727 69.75 61.125 C69.95689453 60.08279297 69.95689453 60.08279297 70.16796875 59.01953125 C70.94389486 54.77193572 71.46104788 51.10770018 70 47 C65.02158204 43.15743468 59.61554044 43.64585872 53.625 43.8125 C52.69816406 43.82603516 51.77132812 43.83957031 50.81640625 43.85351562 C48.54366002 43.88866119 46.27214153 43.93785868 44 44 Z " fill="#915DFF" transform="translate(955,112)"/>
<path d="M0 0 C0.90210205 0.03456299 1.8042041 0.06912598 2.73364258 0.10473633 C7.22420762 0.32814143 11.50815225 0.7778438 15.91181946 1.69564819 C21.84595048 2.79861897 27.59426378 2.99378501 33.61791992 3.00634766 C35.30282028 3.02141609 35.30282028 3.02141609 37.02175903 3.03678894 C40.6954909 3.06741894 44.36915058 3.0845997 48.04296875 3.1015625 C50.60558179 3.12029039 53.16818877 3.13986499 55.73078918 3.1602478 C61.76173802 3.20618892 67.79268067 3.24365793 73.82370788 3.27692068 C80.69692397 3.31530871 87.57004801 3.3646744 94.44318616 3.41490483 C108.56622227 3.51787617 122.68931781 3.60724827 136.8125 3.6875 C136.67165204 5.47956547 136.52466299 7.27114917 136.375 9.0625 C136.25318359 10.55910156 136.25318359 10.55910156 136.12890625 12.0859375 C135.8125 14.6875 135.8125 14.6875 134.8125 16.6875 C123.95436688 16.14768633 113.17454878 15.30159035 102.36991692 14.10020256 C99.9514319 13.83140674 97.53239654 13.56812005 95.11317444 13.30604553 C89.12082084 12.65582997 83.12945365 11.99671305 77.13806152 11.33770752 C72.03352848 10.7765929 66.92863527 10.21899006 61.82321358 9.66601753 C59.45433232 9.40800619 57.0860528 9.14490979 54.71775818 8.88157654 C53.25709745 8.72279935 51.79641051 8.56426308 50.33569336 8.40600586 C49.07236679 8.26690292 47.80904022 8.12779999 46.50743103 7.98448181 C42.57828765 7.66867507 38.75209537 7.63737991 34.8125 7.6875 C35.66521484 8.27144531 35.66521484 8.27144531 36.53515625 8.8671875 C44.08305626 14.33594978 49.94604642 20.35523208 51.8125 29.6875 C78.5425 29.6875 105.2725 29.6875 132.8125 29.6875 C132.1525 33.9775 131.4925 38.2675 130.8125 42.6875 C105.11913009 40.24313229 79.45471923 37.62181338 53.8125 34.6875 C54.1425 35.945625 54.4725 37.20375 54.8125 38.5 C55.8125 43.6875 55.8125 43.6875 55.8125 54.6875 C79.5725 54.6875 103.3325 54.6875 127.8125 54.6875 C126.8125 65.6875 126.8125 65.6875 125.8125 67.6875 C111.07479613 67.03671824 96.46295023 65.29244497 81.8125 63.625 C79.28389471 63.34013468 76.75524914 63.05562666 74.2265625 62.77148438 C68.08807137 62.08094008 61.95009153 61.3859924 55.8125 60.6875 C55.75191406 61.96367187 55.69132813 63.23984375 55.62890625 64.5546875 C55.54450432 66.22397016 55.45985614 67.89324037 55.375 69.5625 C55.33568359 70.40425781 55.29636719 71.24601562 55.25585938 72.11328125 C55.21396484 72.91894531 55.17207031 73.72460938 55.12890625 74.5546875 C55.07391968 75.67012939 55.07391968 75.67012939 55.01782227 76.80810547 C54.8125 78.6875 54.8125 78.6875 53.8125 80.6875 C76.9125 80.6875 100.0125 80.6875 123.8125 80.6875 C123.1525 84.9775 122.4925 89.2675 121.8125 93.6875 C99.3725 91.3775 76.9325 89.0675 53.8125 86.6875 C52.4925 92.6275 51.1725 98.5675 49.8125 104.6875 C72.5825 105.0175 95.3525 105.3475 118.8125 105.6875 C117.8125 117.6875 117.8125 117.6875 116.8125 118.6875 C102.34127402 118.60582556 87.73087224 116.22214257 73.375 114.625 C70.79365222 114.34020075 68.21227224 114.05569311 65.63085938 113.77148438 C59.35769769 113.08018574 53.08494346 112.38528375 46.8125 111.6875 C46.4825 113.6675 46.1525 115.6475 45.8125 117.6875 C43.8325 122.3075 41.8525 126.9275 39.8125 131.6875 C64.5625 131.6875 89.3125 131.6875 114.8125 131.6875 C114.1525 135.6475 113.4925 139.6075 112.8125 143.6875 C104.99821634 143.8408734 97.44522544 143.24791605 89.68359375 142.375 C88.45391373 142.24182373 87.2242337 142.10864746 85.95729065 141.97143555 C82.0542897 141.54850682 78.1520856 141.11878695 74.25 140.6875 C69.10345305 140.11943864 63.9562473 139.55793302 58.80859375 139 C57.63961044 138.86875732 56.47062714 138.73751465 55.26622009 138.60229492 C49.08731723 137.93254202 43.02519755 137.28654118 36.8125 137.6875 C34.63321983 139.86359409 33.50114649 141.28039826 32.0625 143.875 C29.30707666 148.46907943 26.71033223 151.78966777 22.8125 155.6875 C51.5225 156.0175 80.2325 156.3475 109.8125 156.6875 C108.8125 168.6875 108.8125 168.6875 107.8125 169.6875 C105.43457869 169.63769655 103.0982415 169.5219689 100.72802734 169.35180664 C100.00850576 169.30312219 99.28898418 169.25443773 98.54765892 169.20427799 C91.74961954 168.72326439 84.97653083 168.03943811 78.2035408 167.28539848 C76.09120068 167.05049099 73.97835322 166.82069588 71.86532593 166.59205627 C65.87154754 165.94258496 59.87878472 165.28395083 53.88623047 164.62329102 C50.18539121 164.21563132 46.48400695 163.81324319 42.78226852 163.41383553 C41.38917981 163.26241153 39.99630982 163.10895922 38.60368729 162.9533062 C24.18016522 160.45031494 24.18016522 160.45031494 10.875 164.4375 C-8.61091141 177.19791964 -37.8638403 177.27076092 -60.15625 173.375 C-74.21726944 170.18590281 -85.61408368 164.80733711 -93.62109375 152.48046875 C-107.46360606 127.71181912 -99.61389407 91.88798352 -92.53125 66.234375 C-85.81915823 43.11714128 -75.85439776 21.51108317 -54.05078125 9.06640625 C-45.00366609 4.70947357 -35.14210436 1.91073528 -25.1875 0.6875 C-24.19234375 0.56503906 -23.1971875 0.44257812 -22.171875 0.31640625 C-14.74662813 -0.3962063 -7.444847 -0.30442212 0 0 Z M-32.1875 49.6875 C-35.6179213 54.02118847 -36.91745551 57.69839743 -37.8984375 63.1015625 C-38.03206192 63.81757126 -38.16568634 64.53358002 -38.30335999 65.27128601 C-38.7369332 67.61606368 -39.15004602 69.96392348 -39.5625 72.3125 C-39.85983037 73.94702782 -40.15810271 75.58138455 -40.45727539 77.21557617 C-43.56799916 94.33751696 -46.4080257 111.50908332 -49.1875 128.6875 C-45.22923069 128.74630857 -41.27107608 128.78136513 -37.3125 128.8125 C-35.64960937 128.83763672 -35.64960937 128.83763672 -33.953125 128.86328125 C-22.02879824 129.0526194 -22.02879824 129.0526194 -11.25 124.6875 C-5.88565782 116.88482047 -5.07581712 106.38693347 -3.48828125 97.25390625 C-3.2463931 95.88525115 -3.00404973 94.51667643 -2.76127625 93.1481781 C-2.25767442 90.30229729 -1.75799211 87.45576776 -1.26147461 84.60864258 C-0.62514859 80.96042122 0.01876071 77.31358987 0.66527081 73.66716099 C1.16411276 70.8511633 1.66019546 68.03468555 2.15531349 65.21803093 C2.39197347 63.87231299 2.62921123 62.52669653 2.86704063 61.18118477 C3.19743592 59.3081819 3.52398001 57.43450091 3.8503418 55.56079102 C4.036707 54.49619156 4.2230722 53.4315921 4.41508484 52.33473206 C4.88673057 49.63919034 4.88673057 49.63919034 4.8125 46.6875 C0.82902774 46.61269481 -3.15416594 46.55859282 -7.13818359 46.52270508 C-9.15086248 46.50040592 -11.16334584 46.46226347 -13.17578125 46.42382812 C-23.08713756 46.29469198 -23.08713756 46.29469198 -32.1875 49.6875 Z " fill="#915DFF" transform="translate(811.1875,108.3125)"/>
<path d="M0 0 C1.0639373 -0.00503792 1.0639373 -0.00503792 2.14936829 -0.01017761 C4.5152051 -0.01973784 6.88097118 -0.02163506 9.24682617 -0.02270508 C10.90142343 -0.02592069 12.5560204 -0.02928499 14.21061707 -0.03279114 C17.69868627 -0.03879951 21.18673067 -0.04062994 24.67480469 -0.04003906 C28.21750072 -0.03995856 31.76006538 -0.04677052 35.30273438 -0.06054688 C99.85254724 -0.30794646 99.85254724 -0.30794646 115.32495117 14.09838867 C119.13728657 18.20036762 120.36165099 20.54833187 122.22729492 26.14526367 C149.28729492 26.14526367 176.34729492 26.14526367 204.22729492 26.14526367 C203.56729492 30.43526367 202.90729492 34.72526367 202.22729492 39.14526367 C176.54497278 36.61666781 150.87918965 33.96624644 125.22729492 31.14526367 C125.44385742 32.05405273 125.44385742 32.05405273 125.66479492 32.98120117 C125.85041992 33.8190918 126.03604492 34.65698242 126.22729492 35.52026367 C126.41291992 36.33237305 126.59854492 37.14448242 126.78979492 37.98120117 C127.39114717 42.33026655 127.22729492 46.75482016 127.22729492 51.14526367 C150.98729492 51.14526367 174.74729492 51.14526367 199.22729492 51.14526367 C198.22729492 62.14526367 198.22729492 62.14526367 197.22729492 64.14526367 C182.48959105 63.49448191 167.87774515 61.75020864 153.22729492 60.08276367 C150.69868963 59.79789835 148.17004406 59.51339034 145.64135742 59.22924805 C139.5028663 58.53870375 133.36488645 57.84375607 127.22729492 57.14526367 C127.26854492 58.40338867 127.30979492 59.66151367 127.35229492 60.95776367 C127.22729492 66.14526367 127.22729492 66.14526367 125.22729492 77.14526367 C148.32729492 77.14526367 171.42729492 77.14526367 195.22729492 77.14526367 C194.56729492 81.43526367 193.90729492 85.72526367 193.22729492 90.14526367 C184.52568871 89.2539931 175.82443865 88.35942839 167.12377357 87.45901585 C163.08394641 87.04107719 159.04397961 86.62459954 155.00366211 86.21142578 C151.1064979 85.81283752 147.20974239 85.41045735 143.31324387 85.00541496 C141.82459893 84.85134951 140.33581049 84.69866436 138.84688187 84.54736519 C136.76577293 84.3356556 134.68522257 84.11909901 132.60473633 83.90136719 C131.41892975 83.77923355 130.23312317 83.65709991 129.01138306 83.53126526 C126.22729492 83.14526367 126.22729492 83.14526367 124.22729492 82.14526367 C124.15381836 83.07145508 124.15381836 83.07145508 124.07885742 84.01635742 C124.0040918 84.86327148 123.92932617 85.71018555 123.85229492 86.58276367 C123.74788086 87.81833008 123.74788086 87.81833008 123.64135742 89.07885742 C123.09245991 93.14380598 122.11710905 97.14110008 121.22729492 101.14526367 C144.32729492 101.47526367 167.42729492 101.80526367 191.22729492 102.14526367 C189.22729492 114.14526367 189.22729492 114.14526367 188.22729492 115.14526367 C173.75606894 115.06358923 159.14566716 112.67990624 144.78979492 111.08276367 C142.20844714 110.79796442 139.62706716 110.51345678 137.0456543 110.22924805 C130.77249261 109.53794941 124.49973838 108.84304742 118.22729492 108.14526367 C117.85604492 110.06338867 117.85604492 110.06338867 117.47729492 112.02026367 C116.22729492 117.14526367 116.22729492 117.14526367 112.22729492 127.14526367 C136.64729492 127.47526367 161.06729492 127.80526367 186.22729492 128.14526367 C185.56729492 132.10526367 184.90729492 136.06526367 184.22729492 140.14526367 C176.49356012 140.29648195 169.03162618 139.71533956 161.35229492 138.83276367 C160.14718262 138.6995874 158.94207031 138.56641113 157.70043945 138.42919922 C152.58543152 137.86377256 147.47187434 137.28567937 142.3581543 136.70874023 C138.60667735 136.28734407 134.85452184 135.87242012 131.10229492 135.45776367 C129.96034668 135.326521 128.81839844 135.19527832 127.6418457 135.06005859 C117.95003459 133.87069612 117.95003459 133.87069612 108.22729492 134.14526367 C105.85949905 135.94091428 105.85949905 135.94091428 104.60229492 138.64526367 C101.34831901 144.47006033 98.50867604 146.86388255 93.22729492 152.14526367 C122.26729492 152.47526367 151.30729492 152.80526367 181.22729492 153.14526367 C181.22729492 158.72236434 181.12734556 161.27638392 179.22729492 166.14526367 C168.65514251 165.58745802 158.16333008 164.6856483 147.64411545 163.49683571 C145.18014262 163.21934516 142.71553146 162.94833356 140.25064087 162.67912292 C133.2565699 161.91496612 126.26307726 161.14613771 119.27172852 160.35742188 C114.9621273 159.8717074 110.65128808 159.39874567 106.33937454 158.93402672 C104.70822303 158.75577118 103.07758329 158.57276291 101.44752121 158.38480568 C99.17651974 158.12338849 96.90429166 157.87826955 94.63110352 157.63671875 C93.34255463 157.49317459 92.05400574 157.34963043 90.72640991 157.20173645 C85.49382942 157.11728699 81.43284653 159.01994263 76.72729492 161.08276367 C64.9118141 165.85885547 52.06006528 167.31847288 39.40283203 167.25878906 C38.57246429 167.25893509 37.74209656 167.25908112 36.88656616 167.25923157 C34.17589592 167.25854183 31.46529672 167.25079395 28.75463867 167.24291992 C26.86178118 167.2410524 24.96892321 167.23963008 23.07606506 167.2386322 C18.11954387 167.23483333 13.16305247 167.22502578 8.20654297 167.21392822 C3.13859459 167.20365728 -1.92935865 167.19912245 -6.99731445 167.1940918 C-16.92245768 167.18340091 -26.84757889 167.16635644 -36.77270508 167.14526367 C-30.22330443 128.53136363 -23.54682753 89.94025138 -16.73873901 51.37109375 C-15.967572 47.00225705 -15.19823816 42.6331037 -14.43045044 38.26367188 C-13.5182095 33.07334902 -12.60193114 27.88375519 -11.68244171 22.69471169 C-11.34072038 20.76277977 -11.00033865 18.8306104 -10.66133881 16.89819908 C-10.19673599 14.25160616 -9.7272133 11.60593395 -9.25634766 8.96044922 C-9.11980805 8.17620071 -8.98326845 7.39195221 -8.84259129 6.5839386 C-7.60333164 -0.32035756 -6.94282089 0.02055366 0 0 Z M36.22729492 44.14526367 C31.3192251 70.77407337 26.57325736 97.41859608 22.22729492 124.14526367 C25.99806037 124.20425988 29.76870418 124.23918935 33.53979492 124.27026367 C34.59231445 124.28702148 35.64483398 124.3037793 36.72924805 124.32104492 C49.07243761 124.53138865 49.07243761 124.53138865 60.22729492 120.08276367 C65.00947529 113.05893625 66.09996718 104.39970633 67.52416992 96.17260742 C67.72206116 95.050121 67.91995239 93.92763458 68.12384033 92.77113342 C68.53740323 90.41103679 68.94731794 88.05029825 69.35375977 85.68896484 C69.97640953 82.08788431 70.61882522 78.49069358 71.26245117 74.89331055 C71.66339856 72.59078617 72.06317796 70.28805803 72.46166992 67.98510742 C72.65428406 66.91719467 72.84689819 65.84928192 73.04534912 64.74900818 C74.82217558 55.1645385 74.82217558 55.1645385 71.91479492 46.20776367 C67.98070213 43.73074229 63.80799464 44.0283963 59.27416992 44.04760742 C58.61394836 44.04902237 57.95372681 44.05043732 57.27349854 44.05189514 C55.17471698 44.05747122 53.07604398 44.07001921 50.97729492 44.08276367 C49.55021313 44.08778177 48.12312967 44.09234413 46.69604492 44.09643555 C43.2064266 44.10743279 39.71687136 44.12468087 36.22729492 44.14526367 Z " fill="#915DFF" transform="translate(1365.772705078125,111.854736328125)"/>
<path d="M0 0 C61.05 0 122.1 0 185 0 C184 12 184 12 183 13 C167.63001082 12.92615101 152.18920123 10.61367037 136.9375 8.9375 C134.31709868 8.65261385 131.69665623 8.36810572 129.07617188 8.08398438 C122.71696746 7.39367794 116.35828557 6.69871641 110 6 C109.62875 7.8871875 109.62875 7.8871875 109.25 9.8125 C108 15 108 15 104 26 C129.41 26 154.82 26 181 26 C180.34 30.29 179.68 34.58 179 39 C153.30663009 36.55563229 127.64221923 33.93431338 102 31 C101.69255859 32.28197266 101.69255859 32.28197266 101.37890625 33.58984375 C101.10949219 34.69457031 100.84007812 35.79929688 100.5625 36.9375 C100.29566406 38.03964844 100.02882813 39.14179688 99.75390625 40.27734375 C99 43 99 43 98 44 C96.31290653 44.12299166 94.62079097 44.17785258 92.92944336 44.20532227 C91.84839828 44.22526749 90.76735321 44.24521271 89.65354919 44.26576233 C87.889515 44.29083107 87.889515 44.29083107 86.08984375 44.31640625 C84.89267227 44.33718735 83.69550079 44.35796844 82.46205139 44.37937927 C78.62059513 44.44500279 74.77906799 44.50381903 70.9375 44.5625 C68.34048733 44.60567305 65.74348194 44.64928693 63.14648438 44.69335938 C56.76439883 44.80069716 50.38224207 44.90243931 44 45 C43.79503906 46.27617187 43.59007812 47.55234375 43.37890625 48.8671875 C43.10694185 50.53648621 42.83479709 52.20575553 42.5625 53.875 C42.36043945 55.13763672 42.36043945 55.13763672 42.15429688 56.42578125 C41.95610352 57.63427734 41.95610352 57.63427734 41.75390625 58.8671875 C41.63345947 59.61081543 41.5130127 60.35444336 41.38891602 61.12060547 C41 63 41 63 40 65 C56.5 65 73 65 90 65 C89.505 70.94 89.505 70.94 89 77 C116.39 77 143.78 77 172 77 C171 87 171 87 170 90 C169.04644119 89.89977539 168.09288239 89.79955078 167.11042786 89.69628906 C158.12070038 88.75175721 149.13069161 87.8099447 140.14040089 86.87078857 C135.51850488 86.38788152 130.89671303 85.9040195 126.27514648 85.41796875 C121.81446526 84.94887395 117.3535273 84.4822959 112.89240074 84.01745605 C111.19108396 83.8397366 109.48986137 83.661113 107.78873634 83.48156738 C105.40472997 83.23010356 103.0204079 82.9818665 100.63598633 82.734375 C99.93395584 82.65956909 99.23192535 82.58476318 98.50862122 82.50769043 C94.96193392 82.1430716 91.57973184 82 88 82 C86.68 88.6 85.36 95.2 84 102 C111.72 102 139.44 102 168 102 C167.34 106.29 166.68 110.58 166 115 C155.20194718 114.43977047 144.50103995 113.48666458 133.76051521 112.2580719 C131.1337275 111.95861191 128.50626516 111.66585455 125.87852478 111.37487793 C118.41764294 110.54839256 110.95731501 109.7174472 103.49926758 108.86572266 C79.97336023 106.18434688 56.68886123 104.20585209 33 104 C32.86722656 105.10859375 32.73445313 106.2171875 32.59765625 107.359375 C32.41940243 108.8229327 32.24100972 110.28647349 32.0625 111.75 C31.93198242 112.84441406 31.93198242 112.84441406 31.79882812 113.9609375 C31.37744388 117.39443878 30.84064882 120.63740472 30 124 C50.13 124 70.26 124 91 124 C91 125.32 91 126.64 91 128 C114.76 128 138.52 128 163 128 C162 137 162 137 161 140 C153.22975618 140.20185035 145.66788682 139.5768167 137.94921875 138.72265625 C136.12376274 138.52644936 136.12376274 138.52644936 134.26142883 138.32627869 C131.70550855 138.0505088 129.14986177 137.77219326 126.59448242 137.49145508 C122.68274436 137.06197787 118.77018914 136.64068999 114.85742188 136.22070312 C112.36713576 135.9509981 109.87689955 135.6808319 107.38671875 135.41015625 C106.21896408 135.28407486 105.05120941 135.15799347 103.84806824 135.02809143 C102.7595607 134.90804245 101.67105316 134.78799347 100.54956055 134.66430664 C99.11920723 134.50775352 99.11920723 134.50775352 97.65995789 134.34803772 C95.07470099 134.00977413 92.54940363 133.54285645 90 133 C89.86722656 133.94101563 89.73445313 134.88203125 89.59765625 135.8515625 C89.42105469 137.09679687 89.24445313 138.34203125 89.0625 139.625 C88.88847656 140.85476562 88.71445313 142.08453125 88.53515625 143.3515625 C88.06253221 146.5736855 87.53538191 149.78770856 87 153 C110.76 153 134.52 153 159 153 C158.01 159.435 158.01 159.435 157 166 C141.53921937 165.41756456 126.23944496 163.69845336 110.875 161.9375 C108.35552128 161.65252999 105.83599031 161.3680215 103.31640625 161.08398438 C97.21032586 160.39463452 91.10491165 159.69962073 85 159 C85.020625 159.94875 85.04125 160.8975 85.0625 161.875 C85 165 85 165 84 167 C46.71 167 9.42 167 -29 167 C-28.40040113 161.6036102 -27.794332 156.41515938 -26.8614502 151.09819031 C-26.75104542 150.46445568 -26.64064065 149.83072106 -26.52689028 149.17778236 C-26.16184932 147.08639182 -25.79285781 144.99571938 -25.42382812 142.9050293 C-25.1590605 141.3930111 -24.89453569 139.88095038 -24.63023376 138.36885071 C-23.91586992 134.28614793 -23.19802565 130.20406427 -22.47945213 126.12210059 C-21.72668345 121.842858 -20.97688298 117.56309528 -20.22668457 113.28340149 C-18.96765467 106.10355463 -17.70645369 98.92409184 -16.44384766 91.74487305 C-14.98427913 83.44561936 -13.52769439 75.14584641 -12.07279825 66.84577245 C-10.67155594 58.851965 -9.26866001 50.85844874 -7.86485291 42.86509132 C-7.26792624 39.46614319 -6.67149823 36.0671081 -6.07545471 32.66800499 C-5.37421742 28.66963373 -4.67150719 24.67152404 -3.96765327 20.67361259 C-3.70956166 19.20633357 -3.45196027 17.73896822 -3.19488335 16.27151108 C-2.84411294 14.2697358 -2.4913823 12.26830432 -2.1385498 10.26689148 C-1.8432198 8.58648285 -1.8432198 8.58648285 -1.54192352 6.87212658 C-1.10663857 4.56517103 -0.56939167 2.27756668 0 0 Z " fill="#915DFF" transform="translate(1166,112)"/>
<path d="M0 0 C3.43325506 1.48257117 5.67816275 3.42056964 8.32209778 6.04794312 C9.60725784 7.31814049 9.60725784 7.31814049 10.91838074 8.61399841 C11.84999527 9.54494827 12.7816098 10.47589813 13.74145508 11.43505859 C14.73833829 12.42431848 15.73562226 13.41317466 16.73327637 14.4016571 C19.43829404 17.08474919 22.136728 19.77436827 24.83334565 22.46589994 C26.51749884 24.14640949 28.20294272 25.82561348 29.88883018 27.50438309 C35.76746376 33.35853598 41.64036703 39.218375 47.50854492 45.08300781 C52.98406608 50.55488726 58.47259895 56.01347575 63.96716577 61.46622407 C68.68177217 66.14619742 73.38677033 70.83568606 78.08444136 75.53265822 C80.89148476 78.33890689 83.70240309 81.14099564 86.5232029 83.93342209 C89.17310289 86.55725868 91.81090349 89.19267089 94.43973541 91.83761024 C95.40815517 92.80785345 96.38089121 93.77380972 97.35812187 94.73517799 C98.68782732 96.0445994 100.00084054 97.37090846 101.31282043 98.6980896 C102.05335568 99.43661352 102.79389093 100.17513744 103.55686665 100.93604088 C105 103 105 103 104.97998428 104.99678612 C103.6975818 107.61818168 102.07737656 109.29100643 100.00743103 111.35333252 C99.14781265 112.21707489 98.28819427 113.08081726 97.40252686 113.97073364 C96.44288714 114.91975638 95.48310449 115.8686346 94.52319336 116.81738281 C93.51748821 117.82224171 92.51244327 118.82776173 91.50801086 119.83389282 C88.77929728 122.56346786 86.04142656 125.28368838 83.30183864 128.00234318 C80.44038462 130.84505551 77.58741244 133.69625411 74.73353577 136.54656982 C69.32799825 141.94277951 63.91485823 147.33129571 58.49895626 152.71710086 C52.33353082 158.8490053 46.1766121 164.98942078 40.02039897 171.13057184 C27.35638578 183.7632193 14.68171037 196.38511981 2 209 C-1.46251976 207.51122803 -3.70085395 205.54618828 -6.35333252 202.88717651 C-7.21707489 202.02618347 -8.08081726 201.16519043 -8.97073364 200.27810669 C-9.91970982 199.32205287 -10.86858966 198.36590342 -11.81738281 197.40966797 C-12.82245647 196.40403002 -13.82797103 195.39883254 -14.83389282 194.39404297 C-17.56120591 191.66730371 -20.28230848 188.9344419 -23.00234318 186.2004447 C-25.84684044 183.34344513 -28.69700229 180.49210812 -31.54656982 177.64016724 C-36.94076494 172.23975589 -42.32984153 166.83426652 -47.71710086 161.42693722 C-53.8509762 155.27070736 -59.99053138 149.12015539 -66.13057184 142.97007537 C-78.76004796 130.31969401 -91.38236845 117.66219473 -104 105 C-99.08449376 99.07292723 -93.7764013 93.64096336 -88.32275391 88.20922852 C-87.35614889 87.2429061 -86.38976506 86.27636239 -85.42358398 85.30961609 C-82.81881787 82.70456483 -80.2109955 80.10259317 -77.60258532 77.50119138 C-74.87016662 74.77505361 -72.14060801 72.04605514 -69.41073608 69.31736755 C-64.24929386 64.15902473 -59.0853094 59.00323481 -53.92039144 53.8483724 C-48.0368792 47.97606463 -42.15622992 42.10089337 -36.27581143 36.22548783 C-24.18704204 24.1471513 -12.0947081 12.07238971 0 0 Z M-6.77148438 53.90478516 C-7.63410889 54.73020813 -8.4967334 55.5556311 -9.38549805 56.40606689 C-10.67967651 57.69006378 -10.67967651 57.69006378 -12 59 C-12.79510986 59.77108093 -13.59021973 60.54216187 -14.40942383 61.33660889 C-16.84446138 63.7134151 -19.25313955 66.11437347 -21.65625 68.5234375 C-22.52519897 69.39142975 -23.39414795 70.259422 -24.28942871 71.15371704 C-26.10563849 72.96925202 -27.92060907 74.78602745 -29.734375 76.60400391 C-32.5170868 79.39211998 -35.30515948 82.17479621 -38.09375 84.95703125 C-39.86490446 86.72884572 -41.63574911 88.50096994 -43.40625 90.2734375 C-44.23950806 91.10467133 -45.07276611 91.93590515 -45.93127441 92.79232788 C-46.69967651 93.56388214 -47.46807861 94.3354364 -48.25976562 95.13037109 C-48.93575806 95.80715912 -49.61175049 96.48394714 -50.30822754 97.1812439 C-52.97193612 100.04488919 -54.01666586 101.35782205 -53.91300964 105.35195923 C-52.84459932 109.62092226 -51.48018277 111.2740621 -48.3918457 114.36865234 C-47.91365891 114.85574677 -47.43547211 115.34284119 -46.9427948 115.84469604 C-45.36833397 117.44035463 -43.77321258 119.01330098 -42.17578125 120.5859375 C-41.06962121 121.69360097 -39.96442597 122.8022287 -38.8601532 123.91177368 C-36.54684979 126.22940179 -34.22334175 128.53612726 -31.8918457 130.83544922 C-28.90826155 133.77923053 -25.9499002 136.74692792 -22.99854755 139.72298241 C-20.72147136 142.01425864 -18.43238861 144.29322446 -16.13942528 146.56859207 C-15.04390129 147.65827824 -13.9519169 148.75153524 -12.86361122 149.84843063 C-11.33930737 151.38074989 -9.79978158 152.89594832 -8.25512695 154.40771484 C-7.3832222 155.27262543 -6.51131744 156.13753601 -5.61299133 157.02865601 C-2.56236046 159.33017258 -0.82109309 160.03347528 3 160 C5.53918607 158.51830791 5.53918607 158.51830791 7.74194336 156.17626953 C8.60471893 155.3416217 9.46749451 154.50697388 10.35641479 153.64703369 C11.22879791 152.77351257 12.10118103 151.89999146 13 151 C14.65781891 149.41080973 16.31610086 147.82210235 17.97485352 146.23388672 C22.5510544 141.76316911 27.10119877 137.2660528 31.64379883 132.76123047 C33.59776683 130.82522339 35.55995897 128.89814519 37.52954102 126.97802734 C40.39215973 124.18712883 43.22986909 121.37209345 46.06640625 118.5546875 C47.3896566 117.27318314 47.3896566 117.27318314 48.73963928 115.96578979 C49.54815842 115.15449615 50.35667755 114.34320251 51.18969727 113.50732422 C51.90344009 112.80388885 52.61718292 112.10045349 53.35255432 111.3757019 C55.59609071 108.14040636 56.02582731 105.9299386 56 102 C54.22998464 99.03360587 54.22998464 99.03360587 51.43530273 96.43188477 C50.93790085 95.92367691 50.44049896 95.41546906 49.92802429 94.89186096 C48.28242351 93.22129332 46.60959883 91.58142606 44.93359375 89.94140625 C43.77936957 88.78687207 42.62647908 87.63100314 41.47486877 86.47386169 C39.05845628 84.05468165 36.62870126 81.65003092 34.18823242 79.25512695 C31.06259267 76.18625967 27.96906327 73.08725351 24.88447475 69.97718906 C22.50816472 67.58696057 20.11732905 65.21171245 17.72166634 62.8408947 C16.57529691 61.70354978 15.43307432 60.56200916 14.29513359 59.41623116 C12.70111547 57.81638297 11.08901676 56.23731991 9.47045898 54.66235352 C8.55699203 53.75969254 7.64352509 52.85703156 6.70237732 51.92701721 C4.12544352 49.79679904 4.12544352 49.79679904 0.95631409 49.46455383 C-2.71838798 50.13011408 -4.10583097 51.31517297 -6.77148438 53.90478516 Z " fill="#915DFF" transform="translate(205,86)"/>
<path d="M0 0 C0.79615723 0.02610352 1.59231445 0.05220703 2.41259766 0.07910156 C7.21324144 0.31937024 11.8193299 0.93003811 16.53923988 1.85035229 C28.00582918 4.02037885 39.21544476 4.1376996 50.8515625 4.04296875 C52.91091601 4.03735646 54.97027358 4.03309411 57.02963257 4.03010559 C62.38561545 4.0187852 67.74134467 3.98943216 73.097229 3.95599365 C78.58822196 3.92501269 84.07925688 3.91154106 89.5703125 3.89648438 C100.29698495 3.86454702 111.02347118 3.81351064 121.75 3.75 C121.75 5.75 121.75 5.75 119.90625 7.73046875 C116.0702493 10.91773403 112.71176414 13.58584206 107.62817383 14.01123047 C106.47857178 13.90182129 105.32896973 13.79241211 104.14453125 13.6796875 C103.47690262 13.62128189 102.80927399 13.56287628 102.12141418 13.50270081 C99.66113394 13.27753631 97.20637829 13.01434287 94.75 12.75 C92.58450994 12.52966252 90.41897969 12.30971989 88.25341797 12.09008789 C80.81109334 11.3223429 73.37428732 10.50688312 65.9375 9.6875 C62.08154577 9.26493956 58.22548232 8.84343272 54.36921692 8.42372131 C51.98513713 8.16401779 49.60124795 7.9025571 47.21757507 7.6391449 C46.14828262 7.52224808 45.07899017 7.40535126 43.97729492 7.28491211 C43.03738205 7.18133896 42.09746918 7.07776581 41.1290741 6.97105408 C38.65036476 6.70374125 38.65036476 6.70374125 35.75 6.75 C35.59144531 7.32105469 35.43289063 7.89210938 35.26953125 8.48046875 C33.1568583 15.82229906 30.52520292 22.53447241 27.75 29.75 C50.52 29.75 73.29 29.75 96.75 29.75 C93.85169492 38.44491525 93.85169492 38.44491525 91.75 40.75 C84.31551253 41.17027038 77.00495986 40.25981203 69.62109375 39.4375 C68.39084976 39.30432373 67.16060577 39.17114746 65.89308167 39.03393555 C61.99071553 38.61045732 58.08911583 38.18033058 54.1875 37.75 C51.53070491 37.45995581 48.87374764 37.1714301 46.21679688 36.8828125 C39.72730604 36.17691784 33.23843034 35.46557331 26.75 34.75 C26.22599609 36.01457031 26.22599609 36.01457031 25.69140625 37.3046875 C25.23636719 38.40039062 24.78132812 39.49609375 24.3125 40.625 C23.86003906 41.71554688 23.40757812 42.80609375 22.94140625 43.9296875 C22.25456537 45.55558624 21.53934113 47.17131774 20.75 48.75 C20.17258057 48.65912109 19.59516113 48.56824219 19.00024414 48.47460938 C-6.74358007 43.54509352 -6.74358007 43.54509352 -31.25 49.75 C-33.6991894 53.98617286 -34.85174943 57.82189396 -35.67626953 62.62573242 C-35.79214417 63.2850325 -35.9080188 63.94433258 -36.02740479 64.62361145 C-36.40471566 66.78280255 -36.76874552 68.94400888 -37.1328125 71.10546875 C-37.39427971 72.61443815 -37.65665357 74.1232507 -37.91989136 75.63191223 C-38.60827804 79.58967424 -39.2857244 83.54922733 -39.96044922 87.50933838 C-41.04439214 93.85835212 -42.14622709 100.20429369 -43.24575424 106.55062294 C-43.6280504 108.76538045 -44.00643869 110.98077664 -44.38406372 113.19633484 C-44.61684031 114.55171417 -44.84965674 115.90708665 -45.08251953 117.26245117 C-45.28442902 118.4457048 -45.4863385 119.62895844 -45.69436646 120.84806824 C-46.25 123.75 -46.25 123.75 -47.25 126.75 C-29.96824772 128.88166989 -12.25982186 128.5205753 4.55078125 123.6484375 C7.75 122.75 7.75 122.75 11.75 122.75 C11.42 125.72 11.09 128.69 10.75 131.75 C32.2 131.75 53.65 131.75 75.75 131.75 C76.75 136.75 76.75 136.75 76.75 143.75 C54.64 141.44 32.53 139.13 9.75 136.75 C9.75 140.05 9.75 143.35 9.75 146.75 C9.62016917 148.6279102 9.46373929 150.50478122 9.25 152.375 C9.1571875 153.21289062 9.064375 154.05078125 8.96875 154.9140625 C8.8965625 155.51992188 8.824375 156.12578125 8.75 156.75 C9.67628204 156.73223511 10.60256409 156.71447021 11.55691528 156.69616699 C20.29622508 156.53571561 29.03503871 156.41399469 37.77548409 156.33550262 C42.26893178 156.2937908 46.76116029 156.23724073 51.25390625 156.14648438 C55.59175416 156.05940781 59.92843147 156.01169572 64.26708603 155.99098206 C65.92021999 155.97622629 67.57329146 155.94740894 69.22592545 155.90415955 C82.16010444 155.57920724 82.16010444 155.57920724 86.09759521 158.47875977 C88.39783645 161.44829344 89.56670996 164.20012987 90.75 167.75 C80.44226462 167.13440948 70.18583463 166.25094981 59.91796875 165.15625 C58.46447703 165.00299317 57.01097024 164.84987923 55.55744934 164.69689941 C52.54809978 164.37946556 49.53898863 164.05988041 46.5300293 163.73876953 C42.67153285 163.3272446 38.81240441 162.92200284 34.95307446 162.51837921 C31.96831776 162.20541626 28.98395134 161.88885296 25.9996891 161.57121277 C24.5752254 161.42010309 23.15063292 161.2702022 21.72591209 161.12153625 C19.74941764 160.91482509 17.77349516 160.70266668 15.79760742 160.49023438 C14.1134095 160.31155823 14.1134095 160.31155823 12.39518738 160.12927246 C9.75 159.75 9.75 159.75 7.75 158.75 C7.75 161.72 7.75 164.69 7.75 167.75 C-15.83103961 178.18924675 -48.87321779 178.69191851 -72.875 169.4375 C-84.73696035 163.93250183 -91.47902088 156.08571659 -96.21484375 143.94921875 C-106.08658543 113.43994918 -95.64220965 68.69761023 -81.73828125 40.56640625 C-81.24714844 39.63699219 -80.75601563 38.70757812 -80.25 37.75 C-79.78980469 36.87214844 -79.32960938 35.99429688 -78.85546875 35.08984375 C-70.09055136 19.46752543 -56.37940228 8.77990541 -39.25 3.75 C-26.19877004 0.43495973 -13.40755213 -0.51558065 0 0 Z " fill="#915DFF" transform="translate(629.25,108.25)"/>
<path d="M0 0 C41.91 0 83.82 0 127 0 C126.34 4.29 125.68 8.58 125 13 C110.90395807 12.41336065 96.95357364 11.01434943 82.9375 9.4375 C78.80137878 8.9722621 74.66461359 8.51349118 70.52734375 8.05859375 C69.60219467 7.95236191 68.67704559 7.84613007 67.72386169 7.73667908 C62.11127469 7.12034815 56.64671549 6.90276038 51 7 C50.79503906 8.20398438 50.59007812 9.40796875 50.37890625 10.6484375 C50.10693641 12.22398692 49.83479193 13.79950621 49.5625 15.375 C49.36043945 16.56609375 49.36043945 16.56609375 49.15429688 17.78125 C48.11328125 23.7734375 48.11328125 23.7734375 47 26 C71.75 26 96.5 26 122 26 C121 37 121 37 120 39 C95.2981957 36.60490689 70.63490221 34.00921233 46 31 C45.92652344 31.90878906 45.92652344 31.90878906 45.8515625 32.8359375 C45.77679687 33.67382812 45.70203125 34.51171875 45.625 35.375 C45.55539062 36.18710938 45.48578125 36.99921875 45.4140625 37.8359375 C44.83518767 42.25941495 43.87491206 46.62543971 43 51 C67.75 51 92.5 51 118 51 C117.34 55.29 116.68 59.58 116 64 C100.77160454 63.23664769 85.65659673 61.56698911 70.5 59.9375 C67.826898 59.65228793 65.15368498 59.36812354 62.48046875 59.08398438 C55.9865886 58.39294428 49.49313273 57.69802622 43 57 C40.99646205 63.62708706 39.56845485 70.2033623 38 77 C62.75 77 87.5 77 113 77 C112 88 112 88 110 90 C107.30097961 89.98149109 107.30097961 89.98149109 103.82543945 89.6003418 C102.52681473 89.46327316 101.22819 89.32620453 99.89021301 89.1849823 C98.46453929 89.02332374 97.03889609 88.86139579 95.61328125 88.69921875 C94.15327211 88.5408958 92.6931617 88.3835041 91.23295593 88.227005 C87.37938932 87.8112968 83.52741522 87.38226085 79.67559814 86.95068359 C75.7774956 86.51654308 71.87792406 86.09604518 67.97851562 85.67382812 C62.25879873 85.05168398 56.53945488 84.42629301 50.8215332 83.7878418 C49.09517387 83.59559273 49.09517387 83.59559273 47.3339386 83.39945984 C43.88058187 82.98569177 40.44115053 82.50465424 37 82 C36.92652344 83.03447266 36.92652344 83.03447266 36.8515625 84.08984375 C36.77679687 85.02957031 36.70203125 85.96929687 36.625 86.9375 C36.55539062 87.85402344 36.48578125 88.77054687 36.4140625 89.71484375 C35.89217885 93.8554489 34.90532993 97.92601531 34 102 C58.75 102 83.5 102 109 102 C108.34 106.29 107.68 110.58 107 115 C93.49540423 114.25543235 80.07322199 112.8398497 66.62524414 111.41601562 C63.97702784 111.13623631 61.32870946 110.85830711 58.67993164 110.58398438 C54.83176055 110.18500932 50.98417562 109.78079837 47.13671875 109.375 C45.94729172 109.25205566 44.75786469 109.12911133 43.53239441 109.00244141 C42.43977798 108.88562012 41.34716156 108.76879883 40.22143555 108.6484375 C38.77706367 108.49640869 38.77706367 108.49640869 37.30351257 108.34130859 C35 108 35 108 33 107 C32.86722656 107.94101563 32.73445313 108.88203125 32.59765625 109.8515625 C32.42105469 111.09679687 32.24445313 112.34203125 32.0625 113.625 C31.88847656 114.85476562 31.71445313 116.08453125 31.53515625 117.3515625 C31.06253221 120.5736855 30.53538191 123.78770856 30 127 C66.63 127.495 66.63 127.495 104 128 C103 139 103 139 102 140 C93.68723088 140.71606341 85.26915705 139.40585802 77.0234375 138.46875 C75.60288669 138.3113327 74.18228217 138.15439934 72.7616272 137.9979248 C69.05566551 137.5884456 65.35046142 137.17247571 61.64538574 136.75506592 C57.85127273 136.32881724 54.05646735 135.90882705 50.26171875 135.48828125 C42.84046136 134.66491531 35.41999448 133.83467869 28 133 C27.95101563 133.68964844 27.90203125 134.37929687 27.8515625 135.08984375 C27.77679687 136.02957031 27.70203125 136.96929687 27.625 137.9375 C27.52058594 139.31228516 27.52058594 139.31228516 27.4140625 140.71484375 C26.89217885 144.8554489 25.90532993 148.92601531 25 153 C49.75 153 74.5 153 100 153 C99.01 159.435 99.01 159.435 98 166 C82.41094755 165.35371127 66.94331032 163.61002601 51.4375 161.9375 C48.76896715 161.6521775 46.10030576 161.36806661 43.43164062 161.08398438 C36.95397398 160.39350819 30.47679998 159.69855643 24 159 C23.855625 160.134375 23.71125 161.26875 23.5625 162.4375 C23 166 23 166 22 167 C20.40389018 167.09333705 18.80366572 167.11745372 17.20483398 167.11352539 C16.18385117 167.11344986 15.16286835 167.11337433 14.11094666 167.11329651 C13.0005452 167.10813522 11.89014374 167.10297394 10.74609375 167.09765625 C9.61551041 167.0962413 8.48492706 167.09482635 7.32008362 167.09336853 C3.69252935 167.08775019 0.06503576 167.07519458 -3.5625 167.0625 C-6.01497307 167.05748736 -8.4674471 167.05292405 -10.91992188 167.04882812 C-16.94663613 167.0377748 -22.97331181 167.02062274 -29 167 C-27.72937836 156.90686413 -26.1905691 146.89801213 -24.40209961 136.88232422 C-24.14700236 135.44001463 -23.89218409 133.99765568 -23.63761902 132.55525208 C-22.95459193 128.68971622 -22.26768965 124.82487862 -21.57998729 120.96017218 C-20.8575323 116.89638011 -20.13864523 112.83195684 -19.41932678 108.76760864 C-18.21352364 101.95733116 -17.00542147 95.14746501 -15.7956543 88.33789062 C-14.09025417 78.73845175 -12.38917345 69.13825106 -10.6888808 59.53790641 C-9.36505869 52.06418156 -8.04001083 44.59067396 -6.71484375 37.1171875 C-6.57322209 36.31838464 -6.43160043 35.51958179 -6.28568721 34.69657278 C-5.47216315 30.10830398 -4.65803167 25.52014375 -3.84295845 20.93214989 C-3.59646853 19.54424618 -3.35016077 18.1563101 -3.10404968 16.76833916 C-2.76783674 14.87247556 -2.43086527 12.97674652 -2.09385681 11.08102417 C-1.9056433 10.02108686 -1.71742979 8.96114956 -1.52351284 7.86909294 C-1.04392866 5.24074944 -0.52397117 2.61985587 0 0 Z " fill="#905DFF" transform="translate(1792,112)"/>
<path d="M0 0 C16.83 0 33.66 0 51 0 C49.87497875 12.37523375 49.87497875 12.37523375 48.8614502 18.11108398 C48.63433853 19.40923538 48.40722687 20.70738678 48.17323303 22.0448761 C47.92352059 23.44529789 47.67371593 24.84570324 47.42382812 26.24609375 C47.15891221 27.75015104 46.89439197 29.25427807 46.63023376 30.75846863 C45.9174711 34.81028622 45.19906274 38.86108353 44.47945213 42.91168976 C43.72550874 47.16048242 42.97642257 51.41013161 42.22668457 55.65966797 C40.96885204 62.78489587 39.70750059 69.90949358 38.44384766 77.03369141 C36.98271686 85.2713815 35.52639889 93.50991089 34.07279825 101.74893284 C32.52314084 110.53212437 30.97001244 119.31469951 29.4158535 128.09709549 C28.9685738 130.62599625 28.52194316 133.15501094 28.07545471 135.68405151 C27.37500723 139.65057912 26.67223806 143.61668858 25.96765327 147.58248329 C25.70927225 149.03884418 25.45166607 150.49534277 25.19488335 151.95198631 C24.84488322 153.93662605 24.49180048 155.92072142 24.1385498 157.90478516 C23.94166313 159.01600739 23.74477646 160.12722961 23.54192352 161.27212524 C23 164 23 164 22 167 C5.17 167 -11.66 167 -29 167 C-27.87497016 154.62467177 -27.87497016 154.62467177 -26.8614502 148.84422302 C-26.75104542 148.20736842 -26.64064065 147.57051381 -26.52689028 146.91436058 C-26.16343753 144.82422238 -25.79368149 142.73525449 -25.42382812 140.64624023 C-25.1589204 139.13070639 -24.8943999 137.61510481 -24.63023376 136.09944153 C-23.91744879 132.01670997 -23.1990709 127.93498143 -22.47945213 123.85344958 C-21.72565726 119.57346264 -20.97650732 115.29266241 -20.22668457 111.01197815 C-18.96887719 103.83547515 -17.70747566 96.65961111 -16.44384766 89.48413086 C-14.98220812 81.18401969 -13.52603441 72.88296375 -12.07279825 64.58137745 C-10.67309905 56.58621936 -9.26984187 48.59168989 -7.86485291 40.59745979 C-7.26726449 37.19697375 -6.67088301 33.79627928 -6.07545471 30.39541435 C-5.37575205 26.40003256 -4.67292943 22.40521205 -3.96765327 18.41081047 C-3.70896559 16.94279453 -3.45135578 15.4745882 -3.19488335 14.00618362 C-2.84568072 12.00792002 -2.49223639 10.01039903 -2.1385498 8.01292419 C-1.94166313 6.89340583 -1.74477646 5.77388746 -1.54192352 4.6204443 C-1 2 -1 2 0 0 Z " fill="#915DFF" transform="translate(1926,112)"/>
<path d="M0 0 C3.18259851 1.40509099 5.31348466 3.06921342 7.75878906 5.53173828 C8.47923401 6.25233429 9.19967896 6.9729303 9.94195557 7.71536255 C10.70876648 8.49249603 11.47557739 9.26962952 12.265625 10.0703125 C13.05902283 10.86654022 13.85242065 11.66276794 14.66986084 12.48312378 C17.20130703 15.02575948 19.72570803 17.57526348 22.25 20.125 C23.96568617 21.85071753 25.68182662 23.57598355 27.3984375 25.30078125 C31.60424248 29.52863032 35.80428507 33.76213869 40 38 C38.59490901 41.18259851 36.93078658 43.31348466 34.46826172 45.75878906 C33.74766571 46.47923401 33.0270697 47.19967896 32.28463745 47.94195557 C31.50750397 48.70876648 30.73037048 49.47557739 29.9296875 50.265625 C29.13345978 51.05902283 28.33723206 51.85242065 27.51687622 52.66986084 C24.97424052 55.20130703 22.42473652 57.72570803 19.875 60.25 C18.14928247 61.96568617 16.42401645 63.68182662 14.69921875 65.3984375 C10.47136968 69.60424248 6.23786131 73.80428507 2 78 C-1.18259851 76.59490901 -3.31348466 74.93078658 -5.75878906 72.46826172 C-6.47923401 71.74766571 -7.19967896 71.0270697 -7.94195557 70.28463745 C-8.70876648 69.50750397 -9.47557739 68.73037048 -10.265625 67.9296875 C-11.05902283 67.13345978 -11.85242065 66.33723206 -12.66986084 65.51687622 C-15.20130703 62.97424052 -17.72570803 60.42473652 -20.25 57.875 C-21.96568617 56.14928247 -23.68182662 54.42401645 -25.3984375 52.69921875 C-29.60424248 48.47136968 -33.80428507 44.23786131 -38 40 C-36.59490901 36.81740149 -34.93078658 34.68651534 -32.46826172 32.24121094 C-31.74766571 31.52076599 -31.0270697 30.80032104 -30.28463745 30.05804443 C-29.11893723 28.90782806 -29.11893723 28.90782806 -27.9296875 27.734375 C-27.13345978 26.94097717 -26.33723206 26.14757935 -25.51687622 25.33013916 C-22.97424052 22.79869297 -20.42473652 20.27429197 -17.875 17.75 C-16.14928247 16.03431383 -14.42401645 14.31817338 -12.69921875 12.6015625 C-8.47136968 8.39575752 -4.23786131 4.19571493 0 0 Z " fill="#905DFF" transform="translate(204,154)"/>
<path d="M0 0 C37.62 0 75.24 0 114 0 C113 11 113 11 112 13 C98.88537667 12.37127546 85.8675243 11.16460199 72.8125 9.78515625 C70.73169697 9.5671025 68.65088628 9.34912188 66.57006836 9.13121033 C62.25017814 8.67768294 57.93065622 8.22081115 53.61132812 7.76196289 C48.06500894 7.17340872 42.51747154 6.59727446 36.96955872 6.02396488 C32.69170093 5.57989122 28.41475749 5.12746405 24.13803101 4.67263603 C22.09052412 4.45628369 20.04268911 4.24301395 17.99453735 4.03285408 C15.1528957 3.74040679 12.31273916 3.43631541 9.47265625 3.12915039 C8.62398987 3.0444046 7.77532349 2.95965881 6.90093994 2.87234497 C4.92478412 2.65240775 2.95970937 2.33630847 1 2 C0.67 1.34 0.34 0.68 0 0 Z " fill="#905EFF" transform="translate(1460,112)"/>
<path d="M0 0 C38.28 0 76.56 0 116 0 C115.34 4.29 114.68 8.58 114 13 C100.90827488 12.3729007 87.91454518 11.1663511 74.8828125 9.78515625 C72.80680403 9.56707132 70.73078453 9.34909131 68.65475464 9.13121033 C64.34326242 8.67762526 60.03212837 8.22079356 55.72119141 7.76196289 C50.19293678 7.17412795 44.66355483 6.59769957 39.13382149 6.02396488 C34.86453188 5.57922724 30.59605986 5.12700453 26.32778549 4.67263603 C24.28747574 4.45665387 22.24687785 4.24337587 20.20599747 4.03285408 C17.36966836 3.73946641 14.53464401 3.43565824 11.69970703 3.12915039 C10.43749329 3.00203171 10.43749329 3.00203171 9.14978027 2.87234497 C5.41052467 2.4576677 3.18211801 2.12141201 0 0 Z " fill="#915DFF" transform="translate(1227,163)"/>
<path d="M0 0 C35.31 0 70.62 0 107 0 C105.875 7.875 105.875 7.875 104 12 C92.23943017 11.32065762 80.54417882 10.21662923 68.828125 9.00390625 C67.89682518 8.90802656 66.96552536 8.81214687 66.00600433 8.71336174 C61.10036827 8.20830512 56.19506502 7.70015583 51.29003906 7.18920898 C46.23020674 6.66271569 41.16936775 6.14662747 36.10823441 5.63281345 C32.20096675 5.23432278 28.29449458 4.82842493 24.38820648 4.42045403 C22.52094599 4.22672454 20.65339502 4.03577374 18.78556061 3.84765816 C16.18851182 3.58538649 13.5927614 3.31269393 10.99707031 3.03735352 C10.2272583 2.96195847 9.45744629 2.88656342 8.66430664 2.80888367 C5.05945237 2.41559412 3.07489631 2.04993087 0 0 Z " fill="#915DFF" transform="translate(608,163)"/>
<path d="M0 0 C35.31 0 70.62 0 107 0 C105 10 105 10 104 12 C91.93891539 11.35888513 79.95927192 10.26616291 67.94921875 9.00390625 C66.0735579 8.80829224 64.19789149 8.61273153 62.32221985 8.41722107 C58.42849554 8.01037748 54.53508788 7.60063918 50.6418457 7.18920898 C45.65047475 6.66229986 40.65803628 6.14631648 35.66527081 5.63281345 C31.80860574 5.23435934 27.95275096 4.82846136 24.09708595 4.42045403 C22.25494484 4.22676565 20.41251385 4.03581394 18.56979942 3.84765816 C16.00876914 3.58539193 13.44905567 3.3127083 10.8894043 3.03735352 C10.13051407 2.96195847 9.37162384 2.88656342 8.58973694 2.80888367 C5.00882561 2.41267371 3.05623501 2.03749001 0 0 Z " fill="#915DFF" transform="translate(427,163)"/>
<path d="M0 0 C34.98 0 69.96 0 106 0 C106 9 106 9 105 12 C92.6523315 11.39239799 80.39654979 10.31811986 68.10546875 9.00390625 C66.25606063 8.80822098 64.40663918 8.61266174 62.5572052 8.41722107 C58.72069048 8.01071592 54.88453592 7.60098922 51.04858398 7.18920898 C46.13470876 6.66223479 41.2197483 6.14621131 36.30443859 5.63281345 C32.50266045 5.23406139 28.70165854 4.82826695 24.90084267 4.42045403 C23.08741904 4.22699482 21.27372653 4.03603871 19.4597683 3.84765816 C16.9374137 3.58492137 14.4163024 3.31239165 11.89526367 3.03735352 C10.77870392 2.92426094 10.77870392 2.92426094 9.6395874 2.80888367 C5.83288314 2.38249444 3.50095199 1.750476 0 0 Z " fill="#915DFF" transform="translate(599,214)"/>
<path d="M0 0 C34.98 0 69.96 0 106 0 C106 7.875 106 7.875 105 12 C92.6523315 11.39239799 80.39654979 10.31811986 68.10546875 9.00390625 C66.25606063 8.80822098 64.40663918 8.61266174 62.5572052 8.41722107 C58.72069048 8.01071592 54.88453592 7.60098922 51.04858398 7.18920898 C46.13470876 6.66223479 41.2197483 6.14621131 36.30443859 5.63281345 C32.50266045 5.23406139 28.70165854 4.82826695 24.90084267 4.42045403 C23.08741904 4.22699482 21.27372653 4.03603871 19.4597683 3.84765816 C16.9374137 3.58492137 14.4163024 3.31239165 11.89526367 3.03735352 C10.77870392 2.92426094 10.77870392 2.92426094 9.6395874 2.80888367 C5.83288314 2.38249444 3.50095199 1.750476 0 0 Z " fill="#905EFF" transform="translate(418,214)"/>
<path d="M0 0 C35.31 0 70.62 0 107 0 C106.34 3.96 105.68 7.92 105 12 C84.29920314 10.27824662 63.66123948 7.94832217 43.01373291 5.69061279 C38.15254052 5.15949602 33.29110271 4.63063516 28.4296875 4.1015625 C18.95288879 3.06986778 9.47635698 2.03574374 0 1 C0 0.67 0 0.34 0 0 Z " fill="#905DFF" transform="translate(602,189)"/>
<path d="M0 0 C35.31 0 70.62 0 107 0 C106.34 3.96 105.68 7.92 105 12 C84.29920314 10.27824662 63.66123948 7.94832217 43.01373291 5.69061279 C38.15254052 5.15949602 33.29110271 4.63063516 28.4296875 4.1015625 C18.95288879 3.06986778 9.47635698 2.03574374 0 1 C0 0.67 0 0.34 0 0 Z " fill="#905DFF" transform="translate(421,189)"/>
<path d="M0 0 C34.65 0 69.3 0 105 0 C102.10169492 8.69491525 102.10169492 8.69491525 100 11 C94.22787171 11.73442941 88.13560557 10.83038742 82.37841797 10.18969727 C81.16436279 10.0604335 81.16436279 10.0604335 79.92578125 9.92855835 C77.28073417 9.64575763 74.63647776 9.3561909 71.9921875 9.06640625 C70.13856045 8.86663731 68.28489147 8.66725715 66.43118286 8.46824646 C62.55943497 8.05162113 58.68803734 7.63192687 54.81689453 7.2097168 C49.86681321 6.66984868 44.91618914 6.13517869 39.96533012 5.60249424 C35.22409707 5.09217874 30.48312652 4.57944508 25.7421875 4.06640625 C24.84435421 3.969415 23.94652092 3.87242374 23.02148056 3.77249336 C20.46843945 3.49621157 17.915589 3.21823341 15.36279297 2.93969727 C14.61663727 2.85913589 13.87048157 2.77857452 13.10171509 2.6955719 C8.7187604 2.21514494 4.36074288 1.646305 0 1 C0 0.67 0 0.34 0 0 Z " fill="#905DFF" transform="translate(440,138)"/>
<path d="M0 0 C33.66 0 67.32 0 102 0 C102.84728203 4.23641013 103.08384078 7.72412002 103 12 C93.55703768 11.00971502 84.11417266 10.01850822 74.6714201 9.02622509 C70.2835141 8.56515306 65.89557908 8.10436156 61.50756836 7.64428711 C40.99763665 5.49364218 20.49205053 3.31598379 0 1 C0 0.67 0 0.34 0 0 Z " fill="#905DFF" transform="translate(422,240)"/>
<path d="M0 0 C30.69 0 61.38 0 93 0 C93 2 93 2 91.15625 3.98046875 C87.08280949 7.36501859 83.82940391 9.89356272 78.41880798 10.20835876 C76.51754906 10.02388939 76.51754906 10.02388939 74.57788086 9.83569336 C73.88345099 9.77417808 73.18902113 9.71266279 72.47354794 9.64928341 C70.31320619 9.45309462 68.15722717 9.22763092 66 9 C64.70603302 8.88044952 63.41206604 8.76089905 62.07888794 8.63772583 C58.13412608 8.26635802 54.19383141 7.86022186 50.25390625 7.44140625 C48.8218568 7.29065493 47.38980412 7.13993435 45.95774841 6.98924255 C42.99718315 6.67667301 40.03695895 6.36106744 37.0769043 6.04370117 C33.2781608 5.63706117 29.4782591 5.24249659 25.67797947 4.8505106 C22.73919691 4.54536263 19.80134399 4.23191364 16.86369133 3.91609001 C15.46092931 3.76670141 14.05783394 3.62040939 12.65442085 3.47726631 C10.71083381 3.27820592 8.76857298 3.06632026 6.82641602 2.85375977 C5.72217789 2.73686295 4.61793976 2.61996613 3.48023987 2.49952698 C2.66176071 2.33468307 1.84328156 2.16983917 1 2 C0.67 1.34 0.34 0.68 0 0 Z " fill="#905EFF" transform="translate(477,112)"/>
<path d="M0 0 C11.01337771 -0.13895648 22.02654728 -0.2455989 33.04062271 -0.31087303 C38.15483793 -0.34220003 43.26845392 -0.38469797 48.38232422 -0.45263672 C53.31661626 -0.51778027 58.25033161 -0.55369573 63.18502045 -0.56926346 C65.06858146 -0.58035882 66.95211053 -0.60202587 68.83542633 -0.63438034 C71.47203512 -0.67787876 74.10625479 -0.68393712 76.74316406 -0.68115234 C77.91381157 -0.71350983 77.91381157 -0.71350983 79.10810852 -0.746521 C81.29205322 -0.7215271 81.29205322 -0.7215271 85 0 C87.40667725 2.93319702 87.40667725 2.93319702 89 6 C89.5775 6.5775 90.155 7.155 90.75 7.75 C92 9 92 9 92 11 C81.03138505 10.35452783 70.12515462 9.37271294 59.19921875 8.22265625 C58.38802896 8.13780912 57.57683918 8.052962 56.74106789 7.96554375 C52.47198051 7.51898883 48.20324997 7.06919709 43.93481445 6.61645508 C39.5318433 6.15005867 35.12780211 5.69468066 30.72343731 5.24166203 C27.32142902 4.88981776 23.92028179 4.5301464 20.51932716 4.16827202 C18.89408672 3.99670491 17.26853253 3.82808342 15.6426754 3.66246223 C13.38540847 3.43177138 11.12958369 3.19007937 8.8737793 2.94555664 C7.59109665 2.81089493 6.308414 2.67623322 4.98686218 2.53749084 C2 2 2 2 0 0 Z " fill="#915DFF" transform="translate(447,265)"/>
</svg>
