<?xml version="1.0" encoding="UTF-8"?>
<svg version="1.1" xmlns="http://www.w3.org/2000/svg" width="2000" height="2000">
<path d="M0 0 C660 0 1320 0 2000 0 C2000 660 2000 1320 2000 2000 C1340 2000 680 2000 0 2000 C0 1340 0 680 0 0 Z " fill="#210620" transform="translate(0,0)"/>
<path d="M0 0 C4.08684463 1.32795833 6.48888308 3.29214402 9.41704464 6.30263138 C9.96951606 6.84644842 10.52198749 7.39026547 11.09120047 7.95056182 C12.93345287 9.77127271 14.75355905 11.61260353 16.57442379 13.45468521 C17.89276636 14.76653292 19.21238996 16.07709432 20.53319454 17.38646317 C24.11289039 20.9430837 27.67342587 24.5183296 31.23015833 28.09789634 C34.9546711 31.84132394 38.69420177 35.56969771 42.43150997 39.30034256 C48.70464364 45.56713603 54.96536566 51.84612679 61.21895504 58.13241959 C68.45014106 65.40110775 75.7007703 72.64994673 82.96209466 79.88851804 C89.94632604 86.85180586 96.9163781 93.82912289 103.88013744 100.81287956 C106.84438398 103.78511484 109.81356027 106.75229349 112.78680706 109.71552467 C116.28668799 113.20486063 119.77400751 116.70628444 123.2519865 120.21744728 C124.53080859 121.50448238 125.8139071 122.7872844 127.10153103 124.06551361 C128.85768861 125.81026001 130.59773171 127.5696444 132.33452511 129.33363724 C133.1050742 130.08847909 133.1050742 130.08847909 133.89118993 130.85857028 C136.12712655 133.16024647 137.4888196 135.11977412 138.63237953 138.12763405 C138.43881863 142.36058224 136.34960794 144.25470268 133.45441341 147.06489944 C132.90005456 147.63017823 132.34569571 148.19545702 131.7745381 148.77786547 C129.90852134 150.67185287 128.01841252 152.53977735 126.12740231 154.40878677 C124.78608887 155.75958313 123.44626966 157.11186463 122.10784054 158.46551895 C118.46471573 162.14060786 114.79973019 165.79314676 111.12953162 169.44117427 C107.29547684 173.25753442 103.47849953 177.09091212 99.65878963 180.92161942 C93.24079087 187.35236151 86.8081547 193.76818476 80.3671484 200.17587662 C72.91549949 207.58942829 65.48940481 215.02786221 58.07608408 222.47972578 C51.71609316 228.87145923 45.34259091 235.24947877 38.95755011 241.61618906 C35.14159543 245.4212177 31.33055844 249.23084793 27.53162098 253.05287361 C23.95964759 256.64503426 20.37104946 260.2197019 16.76877117 263.78146362 C15.44773016 265.0932306 14.1326436 266.41102482 12.82395649 267.73511696 C11.03967754 269.53845615 9.23535345 271.31894804 7.42413998 273.09517288 C6.90787499 273.62705292 6.39161 274.15893296 5.85970062 274.70693058 C3.37658736 277.09749909 1.97798321 278.11303072 -1.51033211 278.27593231 C-5.24064277 276.85554693 -7.61006521 274.72887989 -10.35181522 271.93059158 C-10.90822134 271.38269098 -11.46462746 270.83479039 -12.03789437 270.27028674 C-13.89695309 268.43349159 -15.73766142 266.57935345 -17.57889652 264.72470474 C-18.90878779 263.40322657 -20.23973205 262.08280738 -21.5716486 260.76337051 C-25.1842924 257.17780251 -28.78085735 253.57650187 -32.37395716 249.9713614 C-35.37381815 246.96437521 -38.38145403 243.96522818 -41.38914597 240.96607798 C-48.4827279 233.89245574 -55.56345242 226.80614482 -62.63602543 219.71152115 C-69.93699095 212.38818052 -77.25773493 205.08505951 -84.58876789 197.79182798 C-90.8800374 191.53176449 -97.15961178 185.26014263 -103.42973912 178.978903 C-107.17577434 175.22637223 -110.92595601 171.47824268 -114.68710804 167.74085808 C-118.22187686 164.22729207 -121.74179923 160.69950396 -125.25073147 157.16014099 C-126.54198995 155.86253866 -127.83840271 154.57004245 -129.14023495 153.28304863 C-130.91451328 151.52736565 -132.66934127 149.75429332 -134.42041874 147.97551346 C-134.94160404 147.46839461 -135.46278934 146.96127576 -135.99976814 146.43878967 C-138.29974304 144.06472298 -139.45021615 142.39388569 -140.14271164 139.1388073 C-139.29203445 135.13161849 -137.2268946 133.01691624 -134.389184 130.24425125 C-133.83875984 129.68305602 -133.28833568 129.12186078 -132.721232 128.54365963 C-130.87218403 126.66598459 -129.00238434 124.81047532 -127.13187504 122.95419693 C-125.80211164 121.61302991 -124.47361483 120.27060604 -123.14629459 118.92702103 C-119.53618381 115.28097715 -115.90713803 111.65435105 -112.27333045 108.03194165 C-109.24322863 105.00801275 -106.22234091 101.97496323 -103.2013765 98.94191021 C-96.07597322 91.78839746 -88.93505588 84.65063806 -81.78421879 77.5225563 C-74.40230958 70.16361915 -67.04633624 62.77947345 -59.7027573 55.38230187 C-53.40039465 49.03566997 -47.08267668 42.70462209 -40.75226742 36.38596481 C-36.96993762 32.61038648 -33.19367865 28.82920375 -29.43192196 25.03311729 C-25.89479982 21.4651311 -22.33890997 17.91699298 -18.76751614 14.38332176 C-17.45890717 13.0821052 -16.15710355 11.7740039 -14.86266041 10.45869446 C-13.0962972 8.66604409 -11.3071801 6.89975976 -9.51003361 5.13805008 C-9.00125453 4.61006099 -8.49247545 4.0820719 -7.96827883 3.53808314 C-5.2453761 0.92477443 -3.8110602 0.14742659 0 0 Z " fill="#905DFD" transform="translate(405.505166053772,858.8644065856934)"/>
<path d="M0 0 C3.222601 2.28399709 5.91175392 5.07220161 8.68334961 7.87524414 C9.95991425 9.13121902 9.95991425 9.13121902 11.26226807 10.41256714 C13.58952135 12.70949876 15.90271118 15.01948277 18.20912623 17.33731008 C20.13703025 19.27139722 22.07404453 21.19622823 24.0110684 23.12117475 C28.58044389 27.66246419 33.13403139 32.21916652 37.67797852 36.78588867 C42.36494681 41.49582852 47.07691761 46.17962488 51.80209154 50.85120875 C55.860029 54.86483857 59.90227506 58.89380153 63.93224341 62.93551344 C66.33853852 65.34855094 68.75026526 67.75542514 71.17707634 70.14784431 C73.87842995 72.81952256 76.55313063 75.51532428 79.22241211 78.21899414 C80.03009537 79.00734146 80.83777863 79.79568878 81.66993713 80.60792542 C86.85639456 85.93567186 86.85639456 85.93567186 87.47392273 90.51246643 C85.34217159 95.55652573 82.06476924 98.77183989 78.19482422 102.58154297 C77.37686874 103.41001236 76.55891327 104.23848175 75.71617126 105.09205627 C73.01056969 107.8240467 70.28362962 110.53352588 67.5546875 113.2421875 C65.66627946 115.13463735 63.77877531 117.0279556 61.89212036 118.92214966 C57.93652956 122.88864428 53.96848401 126.84234809 49.99316406 130.7890625 C45.40286164 135.34671337 40.83457515 139.92557773 36.27712429 144.51606071 C32.35770137 148.4627461 28.42666312 152.39757516 24.48575032 156.32280266 C22.13461748 158.66460013 19.78890697 161.01136187 17.45119858 163.36657333 C14.84222205 165.99078445 12.21478833 168.59499677 9.58154297 171.19482422 C8.42943077 172.3651545 8.42943077 172.3651545 7.25404358 173.55912781 C4.10949815 176.63012635 1.58919854 178.74953677 -2.48080444 180.47966003 C-8.14621346 179.70747496 -10.99591174 176.1098975 -14.88867188 172.13061523 C-15.74961456 171.28208481 -16.61055725 170.43355438 -17.49758911 169.55931091 C-19.85139348 167.23045519 -22.18581753 164.88504763 -24.51244926 162.5292232 C-26.95099203 160.06668732 -29.40941506 157.62413443 -31.86486816 155.17848206 C-35.98445576 151.06887042 -40.08724113 146.94303603 -44.18066406 142.80737305 C-48.91341118 138.02623091 -53.67243769 133.27253303 -58.44628096 128.53245014 C-63.03880751 123.97103907 -67.61138314 119.39011157 -72.1754303 114.80021858 C-74.1178992 112.84753507 -76.06723213 110.90210669 -78.02244568 108.96218681 C-80.75086533 106.25312405 -83.44989157 103.5159092 -86.14648438 100.77514648 C-86.96194733 99.9722821 -87.77741028 99.16941772 -88.61758423 98.34222412 C-93.84590917 92.96196044 -93.84590917 92.96196044 -94.48362732 88.98080444 C-92.18100122 84.35452261 -88.78414961 81.12428294 -85.11547852 77.53198242 C-83.87649811 76.28949738 -83.87649811 76.28949738 -82.61248779 75.02191162 C-79.87979716 72.28760633 -77.12970305 69.57154821 -74.37890625 66.85546875 C-72.47838006 64.96173063 -70.57880816 63.06708023 -68.68040466 61.17121887 C-64.70129352 57.20130283 -60.71314647 53.2406639 -56.71850586 49.28637695 C-51.08168317 43.70644478 -45.462231 38.10926313 -39.8457309 32.50888669 C-35.48537151 28.16248152 -31.11970886 23.82140511 -26.75390625 19.48046875 C-25.81955812 18.5510314 -24.88521 17.62159405 -23.92254829 16.66399193 C-21.28915486 14.04681615 -18.65221252 11.43327689 -16.01391602 8.82104492 C-15.22786484 8.03925369 -14.44181366 7.25746246 -13.63194275 6.45198059 C-12.91543549 5.74407379 -12.19892822 5.03616699 -11.46070862 4.30680847 C-10.83703179 3.68870395 -10.21335497 3.07059942 -9.57077885 2.43376446 C-6.47034887 -0.39622419 -4.11310688 -0.66756751 0 0 Z " fill="#905DFD" transform="translate(408,908)"/>
<path d="M0 0 C1.3567702 0.00146134 2.71354152 0.00211628 4.0703125 0.00195312 C13.94859144 0.04649446 13.94859144 0.04649446 16.45210648 0.68669033 C19.89279055 1.5281051 23.41598132 1.36743872 26.94042969 1.39282227 C27.78957443 1.40272186 28.63871918 1.41262146 29.51359558 1.42282104 C32.31632716 1.45437247 35.11907568 1.47916835 37.921875 1.50390625 C39.86672401 1.52448126 41.8115686 1.54547788 43.75640869 1.56687927 C48.87242045 1.62204338 53.98847219 1.67147763 59.10455322 1.71972656 C64.32624871 1.76998291 69.54788622 1.8256474 74.76953125 1.88085938 C85.01297129 1.98837171 95.2564617 2.08983207 105.5 2.1875 C104.625 10.0625 104.625 10.0625 103.5 11.1875 C88.51129513 11.11468145 73.44315704 8.92057042 58.56268311 7.33746338 C53.8940354 6.84155045 49.22477099 6.35147984 44.55552673 5.86122131 C42.08138816 5.6011161 39.6073936 5.33963655 37.13356018 5.0766449 C36.02737839 4.95974808 34.92119659 4.84285126 33.78149414 4.72241211 C32.31952354 4.56705238 32.31952354 4.56705238 30.82801819 4.40855408 C28.55790755 4.15599048 28.55790755 4.15599048 26.5 4.1875 C27.37011719 4.66316406 27.37011719 4.66316406 28.2578125 5.1484375 C34.72190092 9.00982365 38.35754209 13.33570942 41.5 20.1875 C41.5 20.8475 41.5 21.5075 41.5 22.1875 C61.3 22.1875 81.1 22.1875 101.5 22.1875 C101.17 24.8275 100.84 27.4675 100.5 30.1875 C87.56946228 29.59885491 74.74405445 28.49900197 61.875 27.125 C60.07816688 26.93644945 58.28129197 26.74829664 56.484375 26.56054688 C52.15575726 26.10742281 47.82773141 25.64900923 43.5 25.1875 C43.995 27.1675 43.995 27.1675 44.5 29.1875 C44.5 33.1475 44.5 37.1075 44.5 41.1875 C62.32 41.1875 80.14 41.1875 98.5 41.1875 C98.17 43.8275 97.84 46.4675 97.5 49.1875 C85.42347621 48.8084749 73.45267656 47.98107067 61.4375 46.6875 C60.21901367 46.55690186 59.00052734 46.42630371 57.74511719 46.29174805 C53.22401838 45.78915617 48.91938299 45.29234575 44.5 44.1875 C44.17 49.4675 43.84 54.7475 43.5 60.1875 C60.33 60.1875 77.16 60.1875 94.5 60.1875 C94.17 62.8275 93.84 65.4675 93.5 68.1875 C84.16323946 68.50673483 75.11033506 67.64497044 65.86083984 66.53344727 C63.47705271 66.2472449 61.0922258 65.97146794 58.70703125 65.69726562 C57.17961772 65.51882545 55.65227124 65.33981025 54.125 65.16015625 C53.06406128 65.0366555 53.06406128 65.0366555 51.98168945 64.91065979 C48.75838444 64.52091873 45.62388557 64.08812022 42.5 63.1875 C42.36722656 64.09113281 42.23445312 64.99476563 42.09765625 65.92578125 C41.92105469 67.10527344 41.74445313 68.28476562 41.5625 69.5 C41.38847656 70.67175781 41.21445312 71.84351563 41.03515625 73.05078125 C40.5 76.1875 40.5 76.1875 39.5 79.1875 C56.66 79.1875 73.82 79.1875 91.5 79.1875 C91.17 81.8275 90.84 84.4675 90.5 87.1875 C82.65811083 87.41766514 74.95998001 86.79711023 67.16015625 86.015625 C65.13600755 85.81359864 63.1111132 85.62111225 61.0859375 85.4296875 C53.16199386 84.66257384 45.33178166 83.62268182 37.5 82.1875 C37.31304565 83.12227173 37.31304565 83.12227173 37.12231445 84.07592773 C36.08093449 89.28282754 34.66964869 93.1249864 32.5 98.1875 C50.98 98.1875 69.46 98.1875 88.5 98.1875 C88.17 100.8275 87.84 103.4675 87.5 106.1875 C77.91467772 106.57284653 68.48179541 105.52709851 58.96484375 104.53344727 C56.24272014 104.24923994 53.51991364 103.97255485 50.796875 103.69726562 C49.04683088 103.5186609 47.29682928 103.33963901 45.546875 103.16015625 C44.74256042 103.07782242 43.93824585 102.99548859 43.10955811 102.91065979 C38.5550292 102.43419808 34.02903651 101.86534831 29.5 101.1875 C29.24347656 101.91453125 28.98695313 102.6415625 28.72265625 103.390625 C27.44197175 106.32024195 25.93571771 108.45119988 23.9375 110.9375 C23.31746094 111.71609375 22.69742188 112.4946875 22.05859375 113.296875 C20.5 115.1875 20.5 115.1875 19.5 116.1875 C51.675 116.6825 51.675 116.6825 84.5 117.1875 C84.5 124.1875 84.5 124.1875 83.5 126.1875 C67.66492131 125.10393133 51.9454094 123.5111815 36.20361328 121.50878906 C21.80752407 119.1735905 21.80752407 119.1735905 8.25 123.0625 C-2.87640987 129.28727525 -13.32095252 129.38664383 -25.8125 129.4375 C-27.69485352 129.4684375 -27.69485352 129.4684375 -29.61523438 129.5 C-42.22400471 129.55256392 -53.84884839 127.3943912 -63.31640625 118.4765625 C-73.40568899 106.49079804 -72.64918691 89.90848938 -71.5 75.1875 C-70.66300467 68.4064192 -69.15971946 61.80756672 -67.5 55.1875 C-67.1727205 53.80349331 -66.8458775 52.4193833 -66.51953125 51.03515625 C-63.48228935 38.82420414 -59.43280297 28.06166403 -51.5 18.1875 C-50.95085938 17.48882813 -50.40171875 16.79015625 -49.8359375 16.0703125 C-45.77595646 11.47377009 -41.13557487 8.60360615 -35.75 5.8125 C-35.11908447 5.47847168 -34.48816895 5.14444336 -33.83813477 4.80029297 C-23.22151037 -0.37160153 -11.55882998 -0.10786727 0 0 Z " fill="#8F5DFC" transform="translate(855.5,936.8125)"/>
<path d="M0 0 C7.85925311 -0.04667197 15.71847277 -0.0820441 23.57783031 -0.10362434 C27.22861368 -0.11399018 30.87930112 -0.12801487 34.5300293 -0.15087891 C38.06379937 -0.17286787 41.59747812 -0.1846225 45.13131142 -0.18975449 C47.11232647 -0.19516065 49.09330561 -0.21073006 51.07426453 -0.22659302 C61.35494527 -0.22784515 71.9617295 0.16851554 81.5 4.375 C82.4384375 4.77460937 83.376875 5.17421875 84.34375 5.5859375 C91.22948603 9.25157933 91.22948603 9.25157933 92.85624695 12.94296265 C93.97274634 15.46603508 94.98778634 17.0953748 97 19 C101.51519255 20.21560386 105.96112351 20.07020613 110.61328125 20 C111.95137385 20.00752328 113.28945089 20.01856147 114.62748718 20.03295898 C118.13797224 20.06133582 121.6466288 20.04214436 125.15704346 20.01287842 C128.74348765 19.99145014 132.32960492 20.01523349 135.91601562 20.03515625 C142.94434728 20.06756391 149.97178233 20.04969809 157 20 C156.67 22.64 156.34 25.28 156 28 C149.01087681 28.14364237 142.2261006 27.74001175 135.28515625 26.94140625 C134.30759872 26.8327977 133.3300412 26.72418915 132.32286072 26.61228943 C130.27638735 26.38372094 128.23020936 26.15249328 126.18432617 25.91870117 C123.04743317 25.56078087 119.9095851 25.21238998 116.77148438 24.86523438 C114.77597902 24.64118223 112.78053398 24.41659218 110.78515625 24.19140625 C109.84769058 24.08719864 108.91022491 23.98299103 107.9443512 23.87562561 C107.07592087 23.77559738 106.20749054 23.67556915 105.31274414 23.57250977 C104.55014786 23.48590591 103.78755157 23.39930206 103.00184631 23.31007385 C101 23 101 23 98 22 C98.495 23.423125 98.495 23.423125 99 24.875 C100 29 100 29 100 39 C117.82 39 135.64 39 154 39 C153.67 41.64 153.34 44.28 153 47 C144.30417114 47.33806678 135.86303678 46.39356099 127.26123047 45.28662109 C123.48998568 44.80859892 119.71356563 44.37548677 115.9375 43.9375 C110.62171683 43.31679856 105.3099112 42.66891858 100 42 C100.01160156 42.73605469 100.02320313 43.47210937 100.03515625 44.23046875 C100.04417969 45.20628906 100.05320312 46.18210937 100.0625 47.1875 C100.07410156 48.15042969 100.08570313 49.11335937 100.09765625 50.10546875 C100 53 100 53 99 58 C116.16 58 133.32 58 151 58 C150.34 60.64 149.68 63.28 149 66 C142.82550494 66.0827113 136.83282303 65.80960303 130.6953125 65.16015625 C129.8495163 65.07374374 129.00372009 64.98733124 128.1322937 64.89830017 C126.36238152 64.71639065 124.5926975 64.53224831 122.82324219 64.34594727 C120.11192087 64.06112605 117.3998136 63.78495978 114.6875 63.50976562 C112.96088472 63.33123889 111.23432023 63.15222009 109.5078125 62.97265625 C108.29377243 62.8491555 108.29377243 62.8491555 107.0552063 62.72315979 C103.88696117 62.3858717 101.03282953 62.01094318 98 61 C97.814375 62.7325 97.814375 62.7325 97.625 64.5 C97.15695196 68.86844835 96.09967011 72.60131955 95 77 C112.16 77 129.32 77 147 77 C147 79.31 147 81.62 147 84 C146 85 146 85 144.05432129 85.12841797 C138.1005305 85.10181402 132.26204034 84.75875865 126.34375 84.125 C125.47480103 84.03621582 124.60585205 83.94743164 123.71057129 83.85595703 C120.9732002 83.57537804 118.23660332 83.28796179 115.5 83 C112.73470166 82.71347048 109.96926271 82.42835302 107.20373535 82.14404297 C105.49189973 81.96758323 103.78022269 81.78957668 102.06872559 81.60986328 C98.04298526 81.16459448 98.04298526 81.16459448 94 81 C93.47599609 82.37285156 93.47599609 82.37285156 92.94140625 83.7734375 C92.48636719 84.96195313 92.03132813 86.15046875 91.5625 87.375 C91.11003906 88.55835938 90.65757813 89.74171875 90.19140625 90.9609375 C89 94 89 94 88 96 C106.48 96 124.96 96 144 96 C143.67 98.64 143.34 101.28 143 104 C134.3001163 104.18336991 125.93458393 103.68777502 117.3125 102.5625 C115.04329471 102.29410464 112.77375851 102.02849273 110.50390625 101.765625 C107.38556438 101.40225212 104.26909952 101.03492519 101.15576172 100.63085938 C92.11769366 99.05074759 92.11769366 99.05074759 83.78125 101.515625 C82.20471021 103.48333565 82.20471021 103.48333565 81.265625 105.62890625 C80 108 80 108 74 114 C107.165 114.495 107.165 114.495 141 115 C140.67 117.97 140.34 120.94 140 124 C123.65767749 122.91146669 107.43358833 121.35010702 91.18432617 119.32128906 C75.55623522 116.98362048 75.55623522 116.98362048 60.5 120.375 C49.79448338 125.29608425 38.4054408 125.2864801 26.828125 125.1953125 C25.4103821 125.19157142 23.99263657 125.18872964 22.57489014 125.18673706 C18.88586999 125.17918661 15.19701326 125.15961462 11.50805664 125.1373291 C7.72674773 125.11668297 3.94541181 125.10769567 0.1640625 125.09765625 C-7.22403196 125.0763584 -14.61199288 125.04232962 -22 125 C-21.39767863 119.11606179 -20.60012613 113.34537748 -19.50390625 107.53515625 C-19.19420425 105.85889601 -18.88455528 104.18262598 -18.57495117 102.50634766 C-18.41046478 101.62231262 -18.24597839 100.73827759 -18.07650757 99.82745361 C-13.98076794 77.79561831 -10.16445228 55.71823673 -6.41430664 33.62524414 C-6.00929874 31.25276327 -5.60427037 28.8802859 -5.19921875 26.5078125 C-5.0213382 25.45094742 -4.84345764 24.39408234 -4.66018677 23.30519104 C-3.32279385 15.48756928 -1.70943356 7.74433189 0 0 Z " fill="#8F5CFC" transform="translate(1269,939)"/>
<path d="M0 0 C50.16 0 100.32 0 152 0 C151.67 2.97 151.34 5.94 151 9 C136.20117627 8.33772248 121.54189175 6.73265613 106.82568359 5.08129883 C103.73838542 4.73638265 100.65048382 4.39730776 97.5625 4.05859375 C96.63421387 3.95236191 95.70592773 3.84613007 94.74951172 3.73667908 C89.12848821 3.12167185 83.65494125 2.902563 78 3 C78.85972412 3.49862549 78.85972412 3.49862549 79.73681641 4.00732422 C85.34393785 7.29435127 89.521684 10.80421 92 17 C92 17.99 92 18.98 92 20 C110.48 20 128.96 20 148 20 C147.67 22.64 147.34 25.28 147 28 C134.75446465 27.40917635 122.61862346 26.3078012 110.4375 24.9375 C108.73246551 24.74895394 107.02738749 24.56080113 105.32226562 24.37304688 C101.21423215 23.92058516 97.10720666 23.46016125 93 23 C93 28.28 93 33.56 93 39 C110.16 39 127.32 39 145 39 C144.67 41.64 144.34 44.28 144 47 C137.74384355 47.08414599 131.66238647 46.79841162 125.44140625 46.16015625 C124.57104233 46.07374374 123.70067841 45.98733124 122.80393982 45.89830017 C120.98276297 45.7163554 119.16180447 45.53221264 117.34106445 45.34594727 C114.54633558 45.06085103 111.75080701 44.78486359 108.95507812 44.50976562 C107.17963324 44.3312681 105.40424054 44.15225049 103.62890625 43.97265625 C102.79251114 43.89032242 101.95611603 43.80798859 101.09437561 43.72315979 C95.23026264 43.11513132 95.23026264 43.11513132 93 42 C92.81824219 43.10408203 92.81824219 43.10408203 92.6328125 44.23046875 C92.46523437 45.20628906 92.29765625 46.18210937 92.125 47.1875 C91.96257812 48.15042969 91.80015625 49.11335937 91.6328125 50.10546875 C91 53 91 53 89 58 C106.49 58 123.98 58 142 58 C141.67 60.64 141.34 63.28 141 66 C131.48900006 66.30773711 122.23633907 65.12545999 112.8125 64 C110.38415463 63.71189532 107.95565297 63.42556331 105.52653503 63.14404297 C104.02567221 62.96995548 102.52523484 62.79214242 101.02534485 62.60986328 C96.66064183 62.10176982 92.3917029 61.74154258 88 62 C86.01073965 64.00596727 86.01073965 64.00596727 84.8125 66.75 C82.76928072 70.77755616 81.35722058 72.64277942 78 76 C107.7 76.495 107.7 76.495 138 77 C137.67 79.64 137.34 82.28 137 85 C129.73540011 85.25195144 122.71225327 84.83953752 115.50317383 83.92675781 C107.92968844 82.96982819 100.34255885 82.16515883 92.75 81.375 C91.47584229 81.23989014 90.20168457 81.10478027 88.88891602 80.96557617 C87.68291748 80.84029541 86.47691895 80.71501465 85.234375 80.5859375 C84.15381836 80.4729834 83.07326172 80.3600293 81.95996094 80.24365234 C75.41919919 79.67781519 75.41919919 79.67781519 70 83 C69.34 83 68.68 83 68 83 C68.28875 83.68707031 68.5775 84.37414062 68.875 85.08203125 C69.24625 85.98308594 69.6175 86.88414063 70 87.8125 C70.37125 88.70582031 70.7425 89.59914063 71.125 90.51953125 C72 93 72 93 72 96 C92.79 96 113.58 96 135 96 C134.67 98.64 134.34 101.28 134 104 C124.47203822 104.36924784 115.09212325 103.374005 105.62963867 102.40087891 C102.94066255 102.12532408 100.25075143 101.86091636 97.56054688 101.59765625 C89.27301317 100.76973713 81.12928367 99.87794066 73 98 C73.3609375 98.97582031 73.721875 99.95164062 74.09375 100.95703125 C74.56275162 102.24209569 75.03148779 103.52725704 75.5 104.8125 C75.73847656 105.45509766 75.97695312 106.09769531 76.22265625 106.75976562 C77.27068746 109.64933739 78 111.90076061 78 115 C95.82 115 113.64 115 132 115 C131.67 117.97 131.34 120.94 131 124 C113.94120951 122.91053103 96.94404245 121.2528147 80 119 C80.33 120.98 80.66 122.96 81 125 C67.47 125 53.94 125 40 125 C38.23591593 119.7077478 36.621514 114.8636186 35.39453125 109.50390625 C35.13349609 108.36888672 34.87246094 107.23386719 34.60351562 106.06445312 C34.34248047 104.90880859 34.08144531 103.75316406 33.8125 102.5625 C33.53986328 101.37978516 33.26722656 100.19707031 32.98632812 98.97851562 C31 90.28148496 31 90.28148496 31 88 C28.03 88 25.06 88 22 88 C21.81824219 89.66675781 21.81824219 89.66675781 21.6328125 91.3671875 C20.12185329 104.88973984 20.12185329 104.88973984 18.9375 110.4375 C17.95187156 115.23422506 17.48726388 120.12736122 17 125 C4.13 125 -8.74 125 -22 125 C-19.71046844 108.97327911 -19.71046844 108.97327911 -18.3359375 101.66015625 C-18.01914417 99.94337073 -17.70241529 98.22657332 -17.38574219 96.50976562 C-17.2211853 95.62329346 -17.05662842 94.73682129 -16.88708496 93.82348633 C-13.33272452 74.6595949 -9.99111657 55.46453044 -6.79052734 36.23852539 C-6.63355377 35.3027919 -6.4765802 34.36705841 -6.31484985 33.40296936 C-6.03006503 31.7051271 -5.74759684 30.00689275 -5.46859741 28.30809021 C-3.87336804 18.81929183 -1.89004323 9.45021617 0 0 Z " fill="#8F5DFC" transform="translate(1436,939)"/>
<path d="M0 0 C50.16 0 100.32 0 152 0 C151.34 2.97 150.68 5.94 150 9 C147.12444331 8.88350623 144.24986249 8.75687443 141.375 8.625 C140.19164062 8.57859375 140.19164062 8.57859375 138.984375 8.53125 C134.07397039 8.29742121 129.27697316 7.78852574 124.4140625 7.0625 C117.01889407 5.95869855 109.61957204 5.22446579 102.17431641 4.56738281 C99.97381893 4.37268351 97.77402682 4.17107592 95.57421875 3.96875 C86.8024756 3.17742776 86.8024756 3.17742776 78 3 C78.60328125 3.36351562 79.2065625 3.72703125 79.828125 4.1015625 C84.71938606 7.17832349 88.30313138 9.71863228 91 15 C91.495 17.475 91.495 17.475 92 20 C110.48 20 128.96 20 148 20 C148 22.31 148 24.62 148 27 C147.67 27.33 147.34 27.66 147 28 C129.10326041 27.89003539 110.72196584 25.32712683 93 23 C93 28.28 93 33.56 93 39 C110.16 39 127.32 39 145 39 C144.67 41.64 144.34 44.28 144 47 C126.47688685 46.60929514 109.33511684 44.42398534 92 42 C92.061875 42.969375 92.12375 43.93875 92.1875 44.9375 C92 49 92 49 89 58 C106.16 58 123.32 58 141 58 C141 60.64 141 63.28 141 66 C134.38062828 66.10237495 127.89769113 65.85326686 121.3125 65.1875 C120.43053955 65.10129395 119.5485791 65.01508789 118.63989258 64.92626953 C108.06397623 63.85765842 97.53034264 62.44298805 87 61 C86.73316406 61.90105469 86.46632813 62.80210937 86.19140625 63.73046875 C85.0747504 66.79486531 83.93984496 68.77882026 81.9375 71.3125 C81.41027344 71.98925781 80.88304687 72.66601562 80.33984375 73.36328125 C79 75 79 75 78 76 C107.7 76.495 107.7 76.495 138 77 C137.67 79.64 137.34 82.28 137 85 C127.33793874 85.30532508 117.89618904 84.13972558 108.3125 83.0625 C101.87786759 82.345302 95.44137285 81.65393687 89 81 C88.2660199 80.92223328 87.53203979 80.84446655 86.77581787 80.76434326 C84.72027422 80.55216376 82.66401373 80.36400116 80.60546875 80.18359375 C79.4455542 80.0745874 78.28563965 79.96558105 77.09057617 79.85327148 C73.47145678 79.78077335 73.47145678 79.78077335 69 83 C69.99 87.29 70.98 91.58 72 96 C92.79 96 113.58 96 135 96 C134.67 98.64 134.34 101.28 134 104 C120.17308303 103.71839273 106.53612053 102.64037217 92.8125 101 C92.05712952 100.91036987 91.30175903 100.82073975 90.52349854 100.72839355 C76.88355399 99.09796178 76.88355399 99.09796178 73 98 C73.3609375 99.05960938 73.721875 100.11921875 74.09375 101.2109375 C74.56265793 102.59890499 75.03139931 103.98692875 75.5 105.375 C75.85771484 106.42300781 75.85771484 106.42300781 76.22265625 107.4921875 C78 112.7734375 78 112.7734375 78 115 C95.49 115 112.98 115 131 115 C130.67 117.97 130.34 120.94 130 124 C113.29557641 122.64126698 96.64903767 120.91934153 80 119 C80.33 120.98 80.66 122.96 81 125 C67.14 125 53.28 125 39 125 C37.68 119.823125 36.36 114.64625 35 109.3125 C34.58234375 107.68739502 34.1646875 106.06229004 33.734375 104.38793945 C33.40577992 103.08817214 33.07762553 101.7882933 32.75 100.48828125 C32.57726562 99.82292358 32.40453125 99.15756592 32.2265625 98.4720459 C31.33404053 94.9052784 30.80198909 91.67867148 31 88 C28.03 88 25.06 88 22 88 C21.88930176 88.76554199 21.77860352 89.53108398 21.66455078 90.31982422 C21.15412584 93.83862258 20.63959026 97.35680847 20.125 100.875 C19.95097656 102.07898437 19.77695312 103.28296875 19.59765625 104.5234375 C19.42363281 105.709375 19.24960937 106.8953125 19.0703125 108.1171875 C18.91320801 109.19597168 18.75610352 110.27475586 18.59423828 111.38623047 C17.84467344 115.94459477 16.90597446 120.47012772 16 125 C3.46 125 -9.08 125 -22 125 C-21.35566759 118.55667589 -20.63317085 112.37642483 -19.43359375 106.05078125 C-19.27913284 105.21577087 -19.12467194 104.3807605 -18.9655304 103.52044678 C-18.63278471 101.72184264 -18.29840379 99.92354038 -17.96252441 98.1255188 C-14.37284176 78.89242312 -11.01737227 59.62444772 -7.79077148 40.32739258 C-6.22150527 30.97111605 -4.59241202 21.6302988 -2.828125 12.30859375 C-2.66020447 11.4171315 -2.49228394 10.52566925 -2.3192749 9.60719299 C-2.16138489 8.78347702 -2.00349487 7.95976105 -1.84082031 7.11108398 C-1.7023468 6.38743149 -1.56387329 5.66377899 -1.42120361 4.91819763 C-1 3 -1 3 0 0 Z " fill="#8F5CFC" transform="translate(967,939)"/>
<path d="M0 0 C45.54 0 91.08 0 138 0 C137.67 2.97 137.34 5.94 137 9 C118.22388644 8.52823835 99.63544421 6.19159891 81 4 C80.896875 4.969375 80.79375 5.93875 80.6875 6.9375 C80 11 80 11 77 20 C95.81 20 114.62 20 134 20 C134 26 134 26 133 28 C121.5303134 27.53085908 110.18710071 26.40789514 98.78466797 25.09326172 C90.86215944 24.18600127 82.96490819 23.42695441 75 23 C74.01 27.455 74.01 27.455 73 32 C59.47 32.33 45.94 32.66 32 33 C31.01 38.28 30.02 43.56 29 49 C41.54 49 54.08 49 67 49 C66.34 51.97 65.68 54.94 65 58 C85.79 58 106.58 58 128 58 C127.67 60.64 127.34 63.28 127 66 C117.86000432 66.28503105 108.89395117 65.33448302 99.81494141 64.40087891 C97.13897414 64.12643318 94.46218943 63.86147839 91.78515625 63.59765625 C82.78950686 62.69614922 73.89988285 61.62749093 65 60 C64.01 65.61 63.02 71.22 62 77 C82.46 77 102.92 77 124 77 C123.67 79.64 123.34 82.28 123 85 C114.86029716 85.17064934 107.00912164 84.71089322 98.9375 83.6875 C96.63412855 83.41264336 94.33074269 83.13790742 92.02734375 82.86328125 C88.590039 82.44458349 85.1538663 82.01971705 81.71923828 81.57958984 C62.46571009 79.11478737 43.38453164 78.33844155 24 78 C23.34 82.95 22.68 87.9 22 93 C36.85 93 51.7 93 67 93 C67 93.99 67 94.98 67 96 C84.82 96 102.64 96 121 96 C120.67 98.64 120.34 101.28 120 104 C110.65032182 104.36917071 101.48576812 103.36416356 92.20947266 102.34594727 C89.6103403 102.06089222 87.01038272 101.78464392 84.41015625 101.50976562 C82.74473714 101.33123713 81.0793705 101.15221826 79.4140625 100.97265625 C78.64317291 100.89032242 77.87228333 100.80798859 77.07803345 100.72315979 C73.34119839 100.31072754 69.67116571 99.81677308 66 99 C65.93941406 99.81984375 65.87882812 100.6396875 65.81640625 101.484375 C65.69072266 103.10085938 65.69072266 103.10085938 65.5625 104.75 C65.44068359 106.35101562 65.44068359 106.35101562 65.31640625 107.984375 C65 111 65 111 64 115 C81.82 115 99.64 115 118 115 C117.67 117.97 117.34 120.94 117 124 C98.94881755 122.73623572 80.98015383 121.0303455 63 119 C63 120.98 63 122.96 63 125 C34.95 125 6.9 125 -22 125 C-19.70847366 106.66778925 -19.70847366 106.66778925 -18.40625 99.8515625 C-18.25858185 99.0544838 -18.1109137 98.25740509 -17.95877075 97.43617249 C-17.64128038 95.72292546 -17.32192155 94.01002374 -17.00079346 92.29745483 C-16.11176775 87.55322143 -15.23836042 82.80613381 -14.3671875 78.05859375 C-14.18006195 77.03895035 -13.9929364 76.01930695 -13.80014038 74.96876526 C-12.251275 66.47954959 -10.77536917 57.97835355 -9.3203125 49.47265625 C-9.20798531 48.81669212 -9.09565811 48.160728 -8.97992706 47.48488617 C-7.75458075 40.32727755 -6.53713898 33.16835669 -5.32617188 26.00830078 C-4.91805251 23.61359249 -4.50985319 21.21889783 -4.1015625 18.82421875 C-3.82700729 17.1847805 -3.82700729 17.1847805 -3.54690552 15.51222229 C-3.37238861 14.49200485 -3.1978717 13.47178741 -3.01806641 12.4206543 C-2.86898834 11.53854782 -2.71991028 10.65644135 -2.5663147 9.74760437 C-1.88805085 6.45685327 -0.92304192 3.23064673 0 0 Z " fill="#8F5CFB" transform="translate(1125,939)"/>
<path d="M0 0 C2.07521325 0.0316449 4.14966488 0.0410383 6.22509766 0.046875 C16.30618391 0.11589464 16.30618391 0.11589464 19.28398132 0.77848816 C22.69715807 1.39903322 26.0447972 1.4574558 29.50170898 1.48657227 C30.23395691 1.49647186 30.96620483 1.50637146 31.72064209 1.51657104 C34.12834498 1.54802625 36.53606756 1.57287989 38.94384766 1.59765625 C40.61822507 1.6182396 42.29259745 1.63923643 43.96696472 1.66062927 C48.36453156 1.71570738 52.76214419 1.76517929 57.15979004 1.81347656 C61.65100152 1.86379599 66.14214688 1.91942745 70.63330078 1.97460938 C79.43858334 2.08201641 88.24392138 2.18349982 97.04931641 2.28125 C90.18283726 9.18382132 90.18283726 9.18382132 86.20605469 9.52563477 C85.14628418 9.40502686 84.08651367 9.28441895 82.99462891 9.16015625 C81.7600293 9.0327002 80.52542969 8.90524414 79.25341797 8.77392578 C78.58008423 8.69442688 77.90675049 8.61492798 77.2130127 8.53302002 C74.91796292 8.26596557 72.62125791 8.03373045 70.32177734 7.80810547 C65.18682 7.3011567 60.05553076 6.76211679 54.92431641 6.21875 C51.44279019 5.85048725 47.96098588 5.4850187 44.47900391 5.12109375 C43.29623367 4.99455666 43.29623367 4.99455666 42.08956909 4.86546326 C38.71389972 4.51263958 35.44817056 4.28125 32.04931641 4.28125 C31.71931641 5.93125 31.38931641 7.58125 31.04931641 9.28125 C29.39931641 13.57125 27.74931641 17.86125 26.04931641 22.28125 C43.20931641 22.28125 60.36931641 22.28125 78.04931641 22.28125 C77.05931641 24.59125 76.06931641 26.90125 75.04931641 29.28125 C69.10805038 29.3599253 63.36937656 29.12739314 57.47119141 28.44140625 C56.69672668 28.35499374 55.92226196 28.26858124 55.12432861 28.17955017 C53.50400788 27.99777569 51.88395093 27.81363518 50.26416016 27.62719727 C47.792098 27.34291991 45.31926156 27.06637231 42.84619141 26.79101562 C41.26280737 26.61242817 39.67947218 26.43340695 38.09619141 26.25390625 C37.36277527 26.17157242 36.62935913 26.08923859 35.87371826 26.00440979 C32.20670413 25.58002099 28.67731811 25.00685034 25.04931641 24.28125 C24.05931641 27.91125 23.06931641 31.54125 22.04931641 35.28125 C21.07994141 35.136875 20.11056641 34.9925 19.11181641 34.84375 C11.91088099 33.82410842 4.76434634 33.05859605 -2.51318359 32.96875 C-3.77259766 32.95199219 -5.03201172 32.93523438 -6.32958984 32.91796875 C-10.47184036 33.33353434 -13.31354667 34.25767928 -16.95068359 36.28125 C-20.20915789 40.50927033 -20.86751536 44.8960871 -21.70458984 50.02734375 C-21.85097397 50.87490738 -21.99735809 51.72247101 -22.1481781 52.59571838 C-22.61287715 55.30184485 -23.06300159 58.01017507 -23.51318359 60.71875 C-23.8189181 62.50471264 -24.12555051 64.29052183 -24.43310547 66.07617188 C-26.09473763 75.7909236 -27.62872786 85.51386232 -28.95068359 95.28125 C-17.06142137 95.60182607 -5.80026229 95.57454381 5.83447266 92.9375 C8.69212565 92.35416379 11.14817209 92.14962909 14.04931641 92.28125 C14.04931641 94.26125 14.04931641 96.24125 14.04931641 98.28125 C30.21931641 98.28125 46.38931641 98.28125 63.04931641 98.28125 C63.04931641 100.92125 63.04931641 103.56125 63.04931641 106.28125 C52.04460154 105.6103947 41.12527561 104.46781294 30.17431641 103.21875 C28.50377277 103.03033916 26.83319999 102.84218658 25.16259766 102.65429688 C21.12449611 102.19958151 17.08680134 101.74140688 13.04931641 101.28125 C13.06091797 101.84972656 13.07251953 102.41820312 13.08447266 103.00390625 C13.09349609 103.77605469 13.10251953 104.54820313 13.11181641 105.34375 C13.12341797 106.09785156 13.13501953 106.85195312 13.14697266 107.62890625 C13.02681118 110.89249192 12.55059827 114.05646826 12.04931641 117.28125 C12.73978561 117.26570572 13.43025482 117.25016144 14.14164734 117.23414612 C21.32765345 117.07928946 28.51318589 116.9737081 35.70043945 116.89672852 C38.38298433 116.86547478 41.0643696 116.81677491 43.74633789 116.75317383 C47.60157387 116.66826302 51.45503486 116.62855855 55.31103516 116.59765625 C57.10972298 116.54346275 57.10972298 116.54346275 58.94474792 116.48817444 C67.10670695 116.48432413 67.10670695 116.48432413 69.94766235 118.88619995 C71.34545898 120.82397461 71.34545898 120.82397461 73.04931641 124.28125 C61.67353893 123.67224474 50.3596932 122.7039764 39.02709961 121.55175781 C36.32722367 121.27773908 33.6267984 121.00968698 30.92626953 120.7421875 C29.19251051 120.56805707 27.4587852 120.39359061 25.72509766 120.21875 C24.52666985 120.09995483 24.52666985 120.09995483 23.30403137 119.97875977 C19.50019635 119.5887304 15.78620128 119.12378496 12.04931641 118.28125 C11.71931641 120.59125 11.38931641 122.90125 11.04931641 125.28125 C0.94132567 128.75049718 -7.88654857 129.85701763 -18.63818359 129.65625 C-19.97476957 129.65332353 -21.31136008 129.65201787 -22.64794922 129.65234375 C-35.06952979 129.54149177 -47.45718 128.8299768 -57.21240234 120.3046875 C-66.93838697 110.12925811 -68.35262248 98.4680748 -68.17333984 84.92578125 C-67.951467 78.25703695 -66.71145493 71.82019345 -65.35644531 65.30273438 C-64.97290078 63.3919349 -64.6493369 61.46937932 -64.32958984 59.546875 C-61.36626928 42.39274604 -55.27178527 22.33479193 -40.95068359 11.28125 C-27.96656791 2.48872777 -15.59476694 -0.2397466 0 0 Z " fill="#905DFD" transform="translate(715.95068359375,936.71875)"/>
<path d="M0 0 C31.02 0 62.04 0 94 0 C93.67 2.97 93.34 5.94 93 9 C83.74372114 9.28665799 74.72891364 8.17581795 65.5625 7.0625 C62.50157127 6.69693454 59.44027821 6.33448907 56.37890625 5.97265625 C55.65039459 5.88601715 54.92188293 5.79937805 54.17129517 5.71011353 C48.45524758 5.03651235 42.73557489 4.48347792 37 4 C36.34 9.28 35.68 14.56 35 20 C53.15 20 71.3 20 90 20 C90 22.64 90 25.28 90 28 C81.8672522 28.30434399 74.1366742 27.44154244 66.09472656 26.29101562 C55.36996581 24.80104886 44.8448662 23.72192651 34 24 C33.01 28.95 32.02 33.9 31 39 C49.48 39 67.96 39 87 39 C87 45 87 45 86 47 C78.60287721 47.14064138 71.42619298 46.7722156 64.08203125 45.90625 C63.09877365 45.79526978 62.11551605 45.68428955 61.10246277 45.56994629 C58.00512291 45.21903233 54.90883354 44.85967389 51.8125 44.5 C49.69472552 44.258552 47.5768874 44.01766158 45.45898438 43.77734375 C40.30523233 43.19133023 35.15240358 42.59774876 30 42 C29.90912109 43.22976563 29.90912109 43.22976563 29.81640625 44.484375 C29.73261719 45.56203125 29.64882812 46.6396875 29.5625 47.75 C29.48128906 48.81734375 29.40007812 49.8846875 29.31640625 50.984375 C29 54 29 54 28 58 C46.48 58 64.96 58 84 58 C83.67 60.64 83.34 63.28 83 66 C75.45727707 66.2528287 68.30365784 65.73374048 60.84375 64.64453125 C54.10554205 63.70316396 47.33023685 63.0635859 40.5625 62.375 C39.89437286 62.30679047 39.22624573 62.23858093 38.53787231 62.16830444 C34.69220622 61.77591123 30.84616904 61.38745826 27 61 C26.34 66.28 25.68 71.56 25 77 C43.48 77 61.96 77 81 77 C80.67 79.64 80.34 82.28 80 85 C70.17539219 85.39048952 60.60426051 84.17547928 50.875 83 C37.47983955 81.29431518 37.47983955 81.29431518 24 81 C23.01 85.95 22.02 90.9 21 96 C39.48 96 57.96 96 77 96 C76.67 98.64 76.34 101.28 76 104 C66.38008835 104.38774276 56.90702389 103.33875944 47.35498047 102.34594727 C44.61094431 102.06104063 41.86613939 101.78475907 39.12109375 101.50976562 C37.36453248 101.33122874 35.60802016 101.15220953 33.8515625 100.97265625 C33.03692535 100.89032242 32.22228821 100.80798859 31.38296509 100.72315979 C27.53797333 100.32100414 23.77771982 99.85228467 20 99 C19.90912109 100.22976563 19.90912109 100.22976563 19.81640625 101.484375 C19.73261719 102.56203125 19.64882812 103.6396875 19.5625 104.75 C19.48128906 105.81734375 19.40007812 106.8846875 19.31640625 107.984375 C19 111 19 111 18 115 C36.48 115 54.96 115 74 115 C73.67 117.97 73.34 120.94 73 124 C64.18152801 123.54898797 55.43494844 122.89566461 46.67163086 121.8034668 C39.96344644 120.97175944 33.24178667 120.31542317 26.51074219 119.69750977 C25.70540039 119.62072998 24.90005859 119.5439502 24.0703125 119.46484375 C23.35633301 119.399021 22.64235352 119.33319824 21.90673828 119.26538086 C20 119 20 119 17 118 C16.67 120.31 16.34 122.62 16 125 C3.46 125 -9.08 125 -22 125 C-20.83761737 116.8633216 -19.67922344 108.80333536 -18.1875 100.734375 C-17.83525916 98.79956552 -17.48304697 96.86475082 -17.13085938 94.92993164 C-16.94676514 93.9241507 -16.7626709 92.91836975 -16.57299805 91.8821106 C-13.71197313 76.24323275 -10.91062156 60.59465806 -8.21875 44.92578125 C-8.04729462 43.92812429 -8.04729462 43.92812429 -7.87237549 42.91031265 C-6.63816019 35.72539495 -5.41074494 28.53933335 -4.1875 21.35253906 C-3.98161255 20.1480864 -3.7757251 18.94363373 -3.56359863 17.7026825 C-3.17639134 15.43741453 -2.79111769 13.17181492 -2.40808105 10.90583801 C-2.23667603 9.90445297 -2.065271 8.90306793 -1.88867188 7.87133789 C-1.7403894 6.9984462 -1.59210693 6.1255545 -1.43933105 5.22621155 C-1 3 -1 3 0 0 Z " fill="#8E5CFA" transform="translate(1594,939)"/>
<path d="M0 0 C3.222601 2.28399709 5.91175392 5.07220161 8.68334961 7.87524414 C9.95991425 9.13121902 9.95991425 9.13121902 11.26226807 10.41256714 C13.58952135 12.70949876 15.90271118 15.01948277 18.20912623 17.33731008 C20.13703025 19.27139722 22.07404453 21.19622823 24.0110684 23.12117475 C28.58044389 27.66246419 33.13403139 32.21916652 37.67797852 36.78588867 C42.36494681 41.49582852 47.07691761 46.17962488 51.80209154 50.85120875 C55.860029 54.86483857 59.90227506 58.89380153 63.93224341 62.93551344 C66.33853852 65.34855094 68.75026526 67.75542514 71.17707634 70.14784431 C73.87842995 72.81952256 76.55313063 75.51532428 79.22241211 78.21899414 C80.03009537 79.00734146 80.83777863 79.79568878 81.66993713 80.60792542 C86.85639456 85.93567186 86.85639456 85.93567186 87.47392273 90.51246643 C85.34217159 95.55652573 82.06476924 98.77183989 78.19482422 102.58154297 C77.37686874 103.41001236 76.55891327 104.23848175 75.71617126 105.09205627 C73.01056969 107.8240467 70.28362962 110.53352588 67.5546875 113.2421875 C65.66627946 115.13463735 63.77877531 117.0279556 61.89212036 118.92214966 C57.93652956 122.88864428 53.96848401 126.84234809 49.99316406 130.7890625 C45.40286164 135.34671337 40.83457515 139.92557773 36.27712429 144.51606071 C32.35770137 148.4627461 28.42666312 152.39757516 24.48575032 156.32280266 C22.13461748 158.66460013 19.78890697 161.01136187 17.45119858 163.36657333 C14.84222205 165.99078445 12.21478833 168.59499677 9.58154297 171.19482422 C8.42943077 172.3651545 8.42943077 172.3651545 7.25404358 173.55912781 C4.10949815 176.63012635 1.58919854 178.74953677 -2.48080444 180.47966003 C-8.14621346 179.70747496 -10.99591174 176.1098975 -14.88867188 172.13061523 C-15.74961456 171.28208481 -16.61055725 170.43355438 -17.49758911 169.55931091 C-19.85139348 167.23045519 -22.18581753 164.88504763 -24.51244926 162.5292232 C-26.95099203 160.06668732 -29.40941506 157.62413443 -31.86486816 155.17848206 C-35.98445576 151.06887042 -40.08724113 146.94303603 -44.18066406 142.80737305 C-48.91341118 138.02623091 -53.67243769 133.27253303 -58.44628096 128.53245014 C-63.03880751 123.97103907 -67.61138314 119.39011157 -72.1754303 114.80021858 C-74.1178992 112.84753507 -76.06723213 110.90210669 -78.02244568 108.96218681 C-80.75086533 106.25312405 -83.44989157 103.5159092 -86.14648438 100.77514648 C-86.96194733 99.9722821 -87.77741028 99.16941772 -88.61758423 98.34222412 C-93.84590917 92.96196044 -93.84590917 92.96196044 -94.48362732 88.98080444 C-92.18100122 84.35452261 -88.78414961 81.12428294 -85.11547852 77.53198242 C-83.87649811 76.28949738 -83.87649811 76.28949738 -82.61248779 75.02191162 C-79.87979716 72.28760633 -77.12970305 69.57154821 -74.37890625 66.85546875 C-72.47838006 64.96173063 -70.57880816 63.06708023 -68.68040466 61.17121887 C-64.70129352 57.20130283 -60.71314647 53.2406639 -56.71850586 49.28637695 C-51.08168317 43.70644478 -45.462231 38.10926313 -39.8457309 32.50888669 C-35.48537151 28.16248152 -31.11970886 23.82140511 -26.75390625 19.48046875 C-25.81955812 18.5510314 -24.88521 17.62159405 -23.92254829 16.66399193 C-21.28915486 14.04681615 -18.65221252 11.43327689 -16.01391602 8.82104492 C-15.22786484 8.03925369 -14.44181366 7.25746246 -13.63194275 6.45198059 C-12.91543549 5.74407379 -12.19892822 5.03616699 -11.46070862 4.30680847 C-10.83703179 3.68870395 -10.21335497 3.07059942 -9.57077885 2.43376446 C-6.47034887 -0.39622419 -4.11310688 -0.66756751 0 0 Z M-5.32558537 13.20253754 C-5.89248805 13.77036201 -6.45939074 14.33818649 -7.04347229 14.92321777 C-8.01736908 15.89505257 -8.01736908 15.89505257 -9.01094055 16.88652039 C-9.72735214 17.60652725 -10.44376373 18.32653412 -11.18188477 19.06835938 C-12.3086412 20.19489677 -12.3086412 20.19489677 -13.4581604 21.3441925 C-15.95495153 23.84168355 -18.44817621 26.34270433 -20.94140625 28.84375 C-22.66611863 30.57032628 -24.39105107 32.29668275 -26.11619568 34.02282715 C-30.66731758 38.57777645 -35.21542919 43.13572023 -39.76293945 47.6942749 C-44.39940473 52.34094954 -49.03868433 56.9848124 -53.67773438 61.62890625 C-62.78792704 70.74984015 -71.89504072 79.87384204 -81 89 C-76.80470818 94.00619949 -72.43128848 98.70815221 -67.80126953 103.31225586 C-67.10788986 104.00578156 -66.41451019 104.69930725 -65.70011902 105.41384888 C-63.43004829 107.6832284 -61.1564667 109.94905495 -58.8828125 112.21484375 C-57.29933161 113.79645764 -55.71607279 115.37829389 -54.13302612 116.96034241 C-49.98259908 121.10696645 -45.8291768 125.25057751 -41.67510986 129.39355469 C-37.4300204 133.62838222 -33.1877895 137.8660712 -28.9453125 142.10351562 C-20.63299338 150.40513655 -12.31750511 158.70357522 -4 167 C-1.05790165 165.67289741 1.01614431 164.23210009 3.29034424 161.95016479 C3.9184903 161.32476807 4.54663635 160.69937134 5.19381714 160.05502319 C5.87139069 159.37025909 6.54896423 158.685495 7.24707031 157.97998047 C7.96941864 157.25792419 8.69176697 156.53586792 9.43600464 155.79193115 C11.82148279 153.40506011 14.19979939 151.0111838 16.578125 148.6171875 C18.23107002 146.96051221 19.88445727 145.30427805 21.53826904 143.64846802 C25.88936088 139.28974083 30.23441313 134.92504076 34.57824707 130.55908203 C39.01208371 126.10478495 43.45158909 121.65614582 47.890625 117.20703125 C56.5993166 108.47689145 65.30164008 99.74043306 74 91 C72.66703081 88.04166817 71.2101963 85.9606884 68.91893005 83.67169189 C68.28656433 83.03513168 67.65419861 82.39857147 67.00267029 81.74272156 C66.3101265 81.05579727 65.6175827 80.36887299 64.90405273 79.66113281 C64.17384918 78.92903091 63.44364563 78.19692902 62.6913147 77.44264221 C60.27693322 75.02455641 57.85542773 72.61374493 55.43359375 70.203125 C53.75696491 68.52768798 52.08070524 66.85188145 50.40480042 65.17572021 C46.89315107 61.66563501 43.37816618 58.1589364 39.8605957 54.65478516 C35.34017616 50.15138803 30.8264003 45.64140314 26.31486416 41.12910843 C22.85548826 37.67000369 19.39351812 34.21350555 15.93065071 30.75789642 C14.26458467 29.09502335 12.59913312 27.43153436 10.93429375 25.76743317 C8.61422307 23.44951756 6.29089774 21.1349174 3.96655273 18.82128906 C3.27198471 18.12626785 2.57741669 17.43124664 1.86180115 16.71516418 C1.23225525 16.08988327 0.60270935 15.46460236 -0.0459137 14.82037354 C-0.87024824 13.99855276 -0.87024824 13.99855276 -1.711236 13.16012955 C-3.47343417 11.57382036 -3.56598682 11.60627421 -5.32558537 13.20253754 Z " fill="#240827" transform="translate(408,908)"/>
<path d="M0 0 C12.54 0 25.08 0 38 0 C35.13795556 19.01874694 31.99349969 37.9514248 28.5625 56.875 C28.3684256 57.94544556 28.1743512 59.01589111 27.97439575 60.11877441 C27.1997316 64.38838163 26.42420415 68.65783072 25.6474762 72.92706299 C24.03960006 81.76718985 22.45018258 90.61045871 20.88400269 99.45806885 C20.63186776 100.88086888 20.3789036 102.30352226 20.12503052 103.72601318 C18.58753983 112.25401556 18.58753983 112.25401556 17.40625 120.8359375 C17 124 17 124 16 125 C13.26105915 125.08858646 10.5474673 125.11523479 7.80859375 125.09765625 C6.98875504 125.0962413 6.16891632 125.09482635 5.32423401 125.09336853 C2.69528618 125.08775289 0.06642227 125.07519779 -2.5625 125.0625 C-4.34049357 125.05748701 -6.11848846 125.05292376 -7.89648438 125.04882812 C-12.26435545 125.03777839 -16.63216348 125.02050331 -21 125 C-20.43426919 113.69129226 -18.37298019 102.63666123 -16.4375 91.5 C-16.08021581 89.42329077 -15.72312262 87.34654867 -15.36621094 85.26977539 C-12.1655302 66.71132985 -8.81315374 48.18051774 -5.4065094 29.65890503 C-3.58878636 19.77542814 -1.79556493 9.88752457 0 0 Z " fill="#8F5CFB" transform="translate(1694,939)"/>
<path d="M0 0 C2.0818634 1.44021606 2.0818634 1.44021606 4.14770508 3.48486328 C4.92813675 4.24630646 5.70856842 5.00774963 6.51264954 5.79226685 C7.3399205 6.62652191 8.16719147 7.46077698 9.01953125 8.3203125 C9.87810226 9.17172821 10.73667328 10.02314392 11.6212616 10.90036011 C13.43368245 12.70499428 15.23971247 14.51606615 17.03979492 16.33300781 C19.80021652 19.11263108 22.58864994 21.86172865 25.38085938 24.609375 C27.13719021 26.36541545 28.89180676 28.1231725 30.64453125 29.8828125 C31.48192337 30.70492218 32.31931549 31.52703186 33.18208313 32.37405396 C33.946754 33.1544101 34.71142487 33.93476624 35.49926758 34.73876953 C36.17701736 35.41827667 36.85476715 36.09778381 37.55305481 36.79788208 C39.49934311 39.75995443 39.50093086 41.51879927 39 45 C37.5977478 47.16415405 37.5977478 47.16415405 35.60693359 49.16943359 C34.86551117 49.92976898 34.12408875 50.69010437 33.36019897 51.47348022 C32.54781769 52.27371613 31.7354364 53.07395203 30.8984375 53.8984375 C29.654608 55.15087753 29.654608 55.15087753 28.38565063 56.42861938 C26.62922078 58.18913046 24.86519792 59.94209394 23.09423828 61.68798828 C20.38495988 64.36515815 17.70913886 67.07278405 15.03515625 69.78515625 C13.32483717 71.49151047 11.61265778 73.1960025 9.8984375 74.8984375 C8.69808365 76.11700943 8.69808365 76.11700943 7.47348022 77.36019897 C6.71314484 78.1016214 5.95280945 78.84304382 5.16943359 79.60693359 C4.50769135 80.26390228 3.8459491 80.92087097 3.16415405 81.5977478 C0.22085059 83.50484575 -1.55471292 83.49387042 -5 83 C-7.20211792 81.55305481 -7.20211792 81.55305481 -9.26123047 79.49926758 C-10.04158661 78.73459671 -10.82194275 77.96992584 -11.62594604 77.18208313 C-12.85911057 75.92599495 -12.85911057 75.92599495 -14.1171875 74.64453125 C-14.97434357 73.79074387 -15.83149963 72.93695648 -16.71463013 72.05729675 C-18.52213606 70.24949193 -20.32217794 68.43419791 -22.11523438 66.61206055 C-24.86642073 63.82120298 -27.64572987 61.06085995 -30.4296875 58.30273438 C-32.18144674 56.5434166 -33.93150616 54.78240432 -35.6796875 53.01953125 C-36.51394257 52.19226028 -37.34819763 51.36498932 -38.20773315 50.51264954 C-39.34989792 49.34200203 -39.34989792 49.34200203 -40.51513672 48.14770508 C-41.1898703 47.46597733 -41.86460388 46.78424957 -42.55978394 46.0818634 C-44.38601807 43.44200254 -44.55010829 42.1499578 -44 39 C-42.55305481 36.9181366 -42.55305481 36.9181366 -40.49926758 34.85229492 C-39.73459671 34.07186325 -38.96992584 33.29143158 -38.18208313 32.48735046 C-37.34469101 31.6600795 -36.50729889 30.83280853 -35.64453125 29.98046875 C-34.79074387 29.12189774 -33.93695648 28.26332672 -33.05729675 27.3787384 C-31.24836547 25.56640383 -29.43310133 23.76037158 -27.61206055 21.96020508 C-24.82327174 19.19816841 -22.06211701 16.41052038 -19.30273438 13.61914062 C-17.54326763 11.86297789 -15.7822505 10.10836681 -14.01953125 8.35546875 C-13.19226028 7.51807663 -12.36498932 6.68068451 -11.51264954 5.81791687 C-10.34200203 4.67091057 -10.34200203 4.67091057 -9.14770508 3.50073242 C-8.46597733 2.82298264 -7.78424957 2.14523285 -7.0818634 1.44694519 C-4.44248733 -0.38748473 -3.15380218 -0.55077967 0 0 Z " fill="#230724" transform="translate(407,956)"/>
<path d="M0 0 C0.9796875 0.00322266 1.959375 0.00644531 2.96875 0.00976562 C3.98453125 0.01814453 5.0003125 0.02652344 6.046875 0.03515625 C7.59375 0.04192383 7.59375 0.04192383 9.171875 0.04882812 C11.71360073 0.06059537 14.25520819 0.07703614 16.796875 0.09765625 C16.69238037 0.65098633 16.58788574 1.20431641 16.48022461 1.77441406 C15.30056926 8.13557795 14.22510758 14.51091311 13.17578125 20.89453125 C12.72451281 23.61647967 12.27241406 26.338289 11.82006836 29.06005859 C11.51183461 30.92514232 11.20651603 32.79071006 10.90405273 34.65673828 C10.46124677 37.38327719 10.00704667 40.10771659 9.55078125 42.83203125 C9.41942276 43.6582196 9.28806427 44.48440796 9.15272522 45.33563232 C8.19076164 50.9923629 7.12652696 56.84315435 2.859375 60.97265625 C-0.85507594 62.9987204 -4.21764406 63.21966486 -8.40625 63.1953125 C-9.3859375 63.19208984 -10.365625 63.18886719 -11.375 63.18554688 C-12.39078125 63.17716797 -13.4065625 63.16878906 -14.453125 63.16015625 C-16 63.15338867 -16 63.15338867 -17.578125 63.14648438 C-20.11985073 63.13471713 -22.66145819 63.11827636 -25.203125 63.09765625 C-23.6731085 52.82873287 -21.98447444 42.58876527 -20.22631836 32.35668945 C-19.91715912 30.5471167 -19.61186912 28.73687897 -19.31030273 26.92602539 C-18.86835199 24.27455916 -18.41401336 21.6254742 -17.95703125 18.9765625 C-17.82567276 18.17336075 -17.69431427 17.370159 -17.55897522 16.5426178 C-16.60720494 11.13409923 -15.41960336 6.17113601 -11.265625 2.28515625 C-7.57653571 0.16113514 -4.2061217 -0.0244542 0 0 Z " fill="#230724" transform="translate(846.203125,969.90234375)"/>
<path d="M0 0 C3.5624308 -0.05827558 7.12473819 -0.09368885 10.6875 -0.125 C12.19860352 -0.15013672 12.19860352 -0.15013672 13.74023438 -0.17578125 C14.71669922 -0.18222656 15.69316406 -0.18867187 16.69921875 -0.1953125 C17.59471436 -0.20578613 18.49020996 -0.21625977 19.4128418 -0.22705078 C23.41436012 0.12412522 26.15527611 1.15527611 29 4 C29.35284175 9.86393211 28.6219786 15.30774716 27.57421875 21.06640625 C27.42596146 21.90413071 27.27770416 22.74185516 27.12495422 23.60496521 C26.81145863 25.36446164 26.49444568 27.12333469 26.17407227 28.8815918 C25.68858407 31.55652703 25.21962047 34.23400804 24.75195312 36.91210938 C24.44370147 38.63038679 24.13448886 40.34849216 23.82421875 42.06640625 C23.68658615 42.85825821 23.54895355 43.65011017 23.40715027 44.46595764 C22.50278211 49.34242453 21.31073186 53.5908719 19 58 C12.78169295 61.42145689 6.97287428 61.37504627 0 61.1875 C-0.96550781 61.17396484 -1.93101563 61.16042969 -2.92578125 61.14648438 C-5.28445425 61.11145458 -7.64191771 61.06234084 -10 61 C-10.1664125 55.5074758 -9.55022853 50.45737551 -8.57421875 45.05859375 C-8.42596146 44.21386002 -8.27770416 43.36912628 -8.12495422 42.49879456 C-7.81080379 40.71573998 -7.49378949 38.93318786 -7.17407227 37.15112305 C-6.6935067 34.47099947 -6.22193788 31.78941886 -5.75195312 29.10742188 C-4.03133178 19.35746018 -2.17055313 9.66132621 0 0 Z " fill="#220723" transform="translate(1301,971)"/>
<path d="M0 0 C4.19625909 1.63778045 6.98676785 4.73323182 10.078125 7.8828125 C10.64956238 8.45707977 11.22099976 9.03134705 11.80975342 9.62301636 C13.62792945 11.4523581 15.43901492 13.28854193 17.25 15.125 C18.48391329 16.36894774 19.71828322 17.6124427 20.953125 18.85546875 C23.97406743 21.89842367 26.98867092 24.94753254 30 28 C24.61359076 34.55377097 18.64114873 40.47246635 12.625 46.4375 C11.59221405 47.46525983 10.55966009 48.49325285 9.52734375 49.52148438 C7.02089713 52.01701598 4.5113292 54.50938082 2 57 C-2.19625909 55.36221955 -4.98676785 52.26676818 -8.078125 49.1171875 C-8.64956238 48.54292023 -9.22099976 47.96865295 -9.80975342 47.37698364 C-11.62792945 45.5476419 -13.43901492 43.71145807 -15.25 41.875 C-16.48391329 40.63105226 -17.71828322 39.3875573 -18.953125 38.14453125 C-21.97406743 35.10157633 -24.98867092 32.05246746 -28 29 C-22.61359076 22.44622903 -16.64114873 16.52753365 -10.625 10.5625 C-9.59221405 9.53474017 -8.55966009 8.50674715 -7.52734375 7.47851562 C-5.02089713 4.98298402 -2.5113292 2.49061918 0 0 Z " fill="#905DFE" transform="translate(403,971)"/>
<path d="M0 0 C2.39614126 -0.05425226 4.79103853 -0.09379027 7.1875 -0.125 C8.19780273 -0.15013672 8.19780273 -0.15013672 9.22851562 -0.17578125 C13.26748978 -0.21518588 16.41859848 0.07103421 20 2 C22.28666602 6.57333205 20.62836703 13.45598628 19.4375 18.27734375 C18.40646597 21.04824771 17.51850608 22.70924893 14.91015625 24.171875 C11.14531334 25.24321285 7.56258086 25.21503763 3.6875 25.125 C2.94693359 25.11597656 2.20636719 25.10695313 1.44335938 25.09765625 C-0.37123467 25.07424213 -2.18566071 25.03837615 -4 25 C-3.49451662 16.45907394 -1.93265709 8.32622708 0 0 Z " fill="#240826" transform="translate(1468,971)"/>
<path d="M0 0 C0.66902344 -0.020625 1.33804688 -0.04125 2.02734375 -0.0625 C6.42565946 -0.09706437 9.36335522 0.36196258 12.75 3.25 C14.27888303 8.57436187 12.67085411 16.13457033 10.75 21.25 C9.14125418 23.41159655 8.10564736 24.14100125 5.51953125 24.93359375 C2.13792335 25.31992695 -1.15930929 25.34430552 -4.5625 25.3125 C-5.81675781 25.30347656 -7.07101562 25.29445313 -8.36328125 25.28515625 C-9.31589844 25.27355469 -10.26851562 25.26195312 -11.25 25.25 C-9.33250792 0.07030138 -9.33250792 0.07030138 0 0 Z " fill="#230724" transform="translate(1006.25,970.75)"/>
<path d="M0 0 C50.16 0 100.32 0 152 0 C151.34 2.97 150.68 5.94 150 9 C147.12444331 8.88350623 144.24986249 8.75687443 141.375 8.625 C140.19164062 8.57859375 140.19164062 8.57859375 138.984375 8.53125 C132.85278816 8.23926967 126.87428498 7.43131122 120.80566406 6.52587891 C114.6684326 5.67781651 108.50923116 5.11658896 102.33911133 4.56738281 C100.17147405 4.37356707 98.00471129 4.17147066 95.83789062 3.96875 C87.36579818 3.18173296 87.36579818 3.18173296 78.86328125 2.9765625 C75 3 75 3 72.19699097 2.51429749 C68.7506275 1.95988364 65.4748667 1.83942137 61.98486328 1.79467773 C60.97405449 1.77982834 60.97405449 1.77982834 59.94282532 1.76467896 C57.73535568 1.73331816 55.52786459 1.70840816 53.3203125 1.68359375 C51.78188547 1.66300221 50.24346382 1.64200518 48.70504761 1.62062073 C44.67082088 1.56562715 40.63654503 1.51611845 36.60223389 1.46777344 C32.47957019 1.41739176 28.35697715 1.36179299 24.234375 1.30664062 C16.15630989 1.19933719 8.07818536 1.09783137 0 1 C0 0.67 0 0.34 0 0 Z " fill="#8D5AF7" transform="translate(967,939)"/>
<path d="M0 0 C50.16 0 100.32 0 152 0 C151.67 2.97 151.34 5.94 151 9 C136.27543623 8.34255316 121.69213478 6.74445804 107.05200195 5.08129883 C92.21662767 3.28809947 92.21662767 3.28809947 77.2980957 3.01196289 C75 3 75 3 72.79345703 2.51208496 C69.49302435 1.90706333 66.36258803 1.83700561 63.0065918 1.79467773 C62.32311172 1.78477814 61.63963165 1.77487854 60.93544006 1.76467896 C58.69006746 1.73324594 56.44467374 1.70837905 54.19921875 1.68359375 C52.63694223 1.66300847 51.07467109 1.6420116 49.5124054 1.62062073 C45.41076014 1.56556249 41.30906599 1.51608192 37.20733643 1.46777344 C33.01773757 1.41743939 28.82820928 1.3618156 24.63867188 1.30664062 C16.42584101 1.19925794 8.21295091 1.09776924 0 1 C0 0.67 0 0.34 0 0 Z " fill="#8D5BF8" transform="translate(1436,939)"/>
<path d="M0 0 C27.39 0 54.78 0 83 0 C82.67 2.97 82.34 5.94 82 9 C67.93452844 8.65054729 54.07614866 7.18452609 40.11962891 5.51708984 C30.3435676 4.35342646 20.57584751 3.35181263 10.75073242 2.68383789 C9.90615479 2.62059326 9.06157715 2.55734863 8.19140625 2.4921875 C7.11161499 2.42040283 7.11161499 2.42040283 6.01000977 2.34716797 C4 2 4 2 0 0 Z " fill="#8353E5" transform="translate(1347,939)"/>
<path d="M0 0 C28.05 0 56.1 0 85 0 C84 8 84 8 83 9 C67.47010383 8.912623 51.8571443 6.62845205 36.4375 5 C33.78849721 4.72313072 31.13935838 4.44758382 28.49023438 4.171875 C7.78395708 2.00860197 7.78395708 2.00860197 0 1 C0 0.67 0 0.34 0 0 Z " fill="#8454E7" transform="translate(876,939)"/>
<path d="M0 0 C25.08 0 50.16 0 76 0 C75.67 2.64 75.34 5.28 75 8 C68.79539314 8.24121582 62.78643744 7.92875651 56.625 7.15625 C49.44253893 6.27732532 42.2542448 5.47431543 35.05859375 4.7109375 C34.02992691 4.60169952 33.00126007 4.49246155 31.94142151 4.37991333 C28.7735264 4.04419363 25.60551675 3.70956964 22.4375 3.375 C20.25064157 3.14331858 18.06379254 2.91154832 15.87695312 2.6796875 C10.5847432 2.11876993 5.29241919 1.55893951 0 1 C0 0.67 0 0.34 0 0 Z " fill="#8D5BF8" transform="translate(1180,978)"/>
<path d="M0 0 C23.43 0 46.86 0 71 0 C71 2.64 71 5.28 71 8 C54.83180181 6.6561295 38.69614337 5.0814549 22.5625 3.375 C20.35483737 3.14304192 18.14715515 2.91127034 15.93945312 2.6796875 C10.62607557 2.12192809 5.3129393 1.56191792 0 1 C0 0.67 0 0.34 0 0 Z " fill="#8C5AF6" transform="translate(571,1016)"/>
<path d="M0 0 C22.44 0 44.88 0 68 0 C68 2.64 68 5.28 68 8 C58.12413183 7.34819078 48.28510032 6.49311796 38.4375 5.5 C37.09831873 5.36837316 35.75912605 5.23686237 34.41992188 5.10546875 C33.14568359 4.97785156 31.87144531 4.85023438 30.55859375 4.71875 C29.41704834 4.60466797 28.27550293 4.49058594 27.09936523 4.37304688 C24.35404379 4.04261354 21.70602429 3.55584754 19 3 C16.66880229 2.80573352 14.3350305 2.64090701 12 2.5 C7.90523423 2.25290207 4.00317041 1.90981146 0 1 C0 0.67 0 0.34 0 0 Z " fill="#8D5BF7" transform="translate(710,1016)"/>
<path d="M0 0 C22.11 0 44.22 0 67 0 C67.495 3.96 67.495 3.96 68 8 C54.71718071 7.40541247 41.57720619 6.04763231 28.375 4.5 C26.39197413 4.27172635 24.40890136 4.04385972 22.42578125 3.81640625 C7.07456719 2.04596133 7.07456719 2.04596133 0 1 C0 0.67 0 0.34 0 0 Z " fill="#8C5AF6" transform="translate(576,1035)"/>
<path d="M0 0 C23.1 0 46.2 0 70 0 C70 2.64 70 5.28 70 8 C60.76813882 7.39553744 51.57917769 6.59575771 42.3828125 5.58984375 C40.54805862 5.39220177 40.54805862 5.39220177 38.67623901 5.19056702 C34.82556758 4.77522903 30.97528225 4.35642887 27.125 3.9375 C24.49091033 3.65276421 21.85679594 3.36825699 19.22265625 3.08398438 C12.8148165 2.39196074 6.40728878 1.69710555 0 1 C0 0.67 0 0.34 0 0 Z " fill="#8D5BF7" transform="translate(575,997)"/>
<path d="M0 0 C22.77 0 45.54 0 69 0 C68.67 2.64 68.34 5.28 68 8 C45.2417181 6.49476319 22.63764 3.72405075 0 1 C0 0.67 0 0.34 0 0 Z " fill="#8E5BF9" transform="translate(712,997)"/>
<path d="M0 0 C22.44 0 44.88 0 68 0 C67.34 2.64 66.68 5.28 66 8 C53.60054696 6.78874238 41.20847885 5.50824229 28.81817627 4.20715332 C27.11438732 4.02825892 25.41057082 3.84962676 23.70672607 3.67126465 C21.26793477 3.41581472 18.82926389 3.15924414 16.390625 2.90234375 C15.66406708 2.82634445 14.93750916 2.75034515 14.18893433 2.67204285 C9.4513473 2.17114761 4.72568511 1.60315888 0 1 C0 0.67 0 0.34 0 0 Z " fill="#8D5AF7" transform="translate(718,978)"/>
<path d="M0 0 C22.44 0 44.88 0 68 0 C67.67 2.31 67.34 4.62 67 7 C53.10821444 7.69765768 39.38828521 5.63491589 25.625 4 C23.13550161 3.71020683 20.64591878 3.42113811 18.15625 3.1328125 C12.1031671 2.43023033 6.05119038 1.71869019 0 1 C0 0.67 0 0.34 0 0 Z " fill="#8D5BF7" transform="translate(582,978)"/>
<path d="M0 0 C22.11 0 44.22 0 67 0 C65 6 65 6 64 7 C56.07377545 7.55368241 48.19162858 6.62308345 40.33203125 5.6875 C39.17120529 5.55432373 38.01037933 5.42114746 36.81437683 5.28393555 C33.14638325 4.86178095 29.47945912 4.43103826 25.8125 4 C23.30931076 3.71036677 20.80605606 3.42129878 18.30273438 3.1328125 C12.20105099 2.42840607 6.10021959 1.71696659 0 1 C0 0.67 0 0.34 0 0 Z " fill="#8C5AF6" transform="translate(591,959)"/>
<path d="M0 0 C23.76 0 47.52 0 72 0 C65.09379685 6.90620315 65.09379685 6.90620315 61.15014648 7.24438477 C60.08868408 7.12377686 59.02722168 7.00316895 57.93359375 6.87890625 C56.08096924 6.68772217 56.08096924 6.68772217 54.19091797 6.49267578 C53.18263947 6.37342743 53.18263947 6.37342743 52.1539917 6.25177002 C49.87824129 5.98576819 47.60083584 5.75309358 45.32080078 5.52685547 C39.35141644 4.93057603 33.38644422 4.29426243 27.42163086 3.65405273 C24.85562483 3.37954089 22.28917931 3.10947236 19.72265625 2.83984375 C18.94962662 2.75548569 18.17659698 2.67112762 17.38014221 2.58421326 C13.9352445 2.22404287 10.67899841 2.006133 7.20483398 2.07250977 C4 2 4 2 0 0 Z " fill="#7F4FDB" transform="translate(741,939)"/>
<path d="M0 0 C22.44 0 44.88 0 68 0 C66.68 1.32 65.36 2.64 64 4 C63.45214844 4.58910156 62.90429688 5.17820312 62.33984375 5.78515625 C58.48533202 7.78641359 54.78100994 6.91925598 50.5625 6.4375 C49.59562256 6.34033691 48.62874512 6.24317383 47.63256836 6.14306641 C44.08622422 5.78049221 40.54344756 5.38986694 37 5 C34.59940513 4.74344445 32.19858128 4.48910099 29.79774475 4.2348175 C19.86233883 3.18200449 9.93040996 2.09884701 0 1 C0 0.67 0 0.34 0 0 Z " fill="#8050DE" transform="translate(609,939)"/>
<path d="M0 0 C19.14 0 38.28 0 58 0 C59.32 2.31 60.64 4.62 62 7 C54.73907743 7.16009384 47.73454317 6.53746604 40.52734375 5.6875 C39.3636879 5.55432373 38.20003204 5.42114746 37.00111389 5.28393555 C33.31267701 4.86070862 29.62509848 4.43046459 25.9375 4 C23.42518377 3.71047235 20.91281444 3.42140504 18.40039062 3.1328125 C12.26630268 2.4272003 6.13290268 1.71583699 0 1 C0 0.67 0 0.34 0 0 Z " fill="#8A58F1" transform="translate(591,1054)"/>
<path d="M0 0 C7.88336537 -0.17747532 15.76621596 -0.30006964 23.65112305 -0.38452148 C26.33366793 -0.41577522 29.01505319 -0.46447509 31.69702148 -0.52807617 C35.55225746 -0.61298698 39.40571846 -0.65269145 43.26171875 -0.68359375 C45.06040657 -0.73778725 45.06040657 -0.73778725 46.89543152 -0.79307556 C55.05739055 -0.79692587 55.05739055 -0.79692587 57.89834595 1.60494995 C59.29614258 3.54272461 59.29614258 3.54272461 61 7 C49.62422252 6.39099474 38.31037679 5.4227264 26.9777832 4.27050781 C24.27790727 3.99648908 21.577482 3.72843698 18.87695312 3.4609375 C17.14319411 3.28680707 15.4094688 3.11234061 13.67578125 2.9375 C12.87682938 2.85830322 12.0778775 2.77910645 11.25471497 2.69750977 C7.45087994 2.3074804 3.73688488 1.84253496 0 1 C0 0.67 0 0.34 0 0 Z " fill="#8A59F3" transform="translate(728,1054)"/>
<path d="M0 0 C50.16 0 100.32 0 152 0 C151.67 0.99 151.34 1.98 151 3 C151 2.34 151 1.68 151 1 C141.82902943 1.10761668 132.65813858 1.2202733 123.48730946 1.33933926 C119.22878866 1.39447029 114.97026089 1.44787435 110.71166992 1.49731445 C106.60082356 1.54510315 102.49005807 1.59745075 98.3793087 1.65294075 C96.81207993 1.67329871 95.24482904 1.69202239 93.67756081 1.70907402 C91.48002775 1.7332638 89.28264561 1.76329758 87.08520508 1.79467773 C85.83500076 1.81022202 84.58479645 1.8257663 83.29670715 1.84178162 C80.09869813 1.90075767 80.09869813 1.90075767 77.43217468 2.57533264 C74.39258427 3.1060572 72.02759611 2.55723126 69 2 C66.66323848 1.88934005 64.32405132 1.82466732 61.98486328 1.79467773 C60.97405449 1.77982834 60.97405449 1.77982834 59.94282532 1.76467896 C57.73535568 1.73331816 55.52786459 1.70840816 53.3203125 1.68359375 C51.78188547 1.66300221 50.24346382 1.64200518 48.70504761 1.62062073 C44.67082088 1.56562715 40.63654503 1.51611845 36.60223389 1.46777344 C32.47957019 1.41739176 28.35697715 1.36179299 24.234375 1.30664062 C16.15630989 1.19933719 8.07818536 1.09783137 0 1 C0 0.67 0 0.34 0 0 Z " fill="#6138A0" transform="translate(967,939)"/>
<path d="M0 0 C50.16 0 100.32 0 152 0 C152 0.33 152 0.66 152 1 C150.64149933 1.0154612 150.64149933 1.0154612 149.2555542 1.03123474 C140.72137249 1.12920383 132.18726009 1.23171754 123.65319443 1.33933926 C119.26572912 1.39450846 114.87825707 1.44791884 110.49072266 1.49731445 C106.25668843 1.54504657 102.02273411 1.59739252 97.78879547 1.65294075 C96.17329141 1.67332423 94.55776548 1.69204387 92.9422226 1.70907402 C90.6798258 1.73320687 88.41757901 1.76324905 86.15527344 1.79467773 C84.86731873 1.81022202 83.57936401 1.8257663 82.25238037 1.84178162 C79.15596263 1.87667712 79.15596263 1.87667712 76.86529541 2.57533264 C74.35736911 3.14630624 72.50893102 2.53718743 70 2 C67.67060338 1.88690322 65.33854686 1.82408978 63.0065918 1.79467773 C62.32311172 1.78477814 61.63963165 1.77487854 60.93544006 1.76467896 C58.69006746 1.73324594 56.44467374 1.70837905 54.19921875 1.68359375 C52.63694223 1.66300847 51.07467109 1.6420116 49.5124054 1.62062073 C45.41076014 1.56556249 41.30906599 1.51608192 37.20733643 1.46777344 C33.01773757 1.41743939 28.82820928 1.3618156 24.63867188 1.30664062 C16.42584101 1.19925794 8.21295091 1.09776924 0 1 C0 0.67 0 0.34 0 0 Z " fill="#6137A0" transform="translate(1436,939)"/>
<path d="M0 0 C23.1 0.33 46.2 0.66 70 1 C69.67 1.66 69.34 2.32 69 3 C50.19 2.67 31.38 2.34 12 2 C12 2.66 12 3.32 12 4 C5.07 3.505 5.07 3.505 -2 3 C-1.34 2.67 -0.68 2.34 0 2 C0 1.34 0 0.68 0 0 Z " fill="#8857EE" transform="translate(1340,1053)"/>
</svg>
